<?xml version="1.0" encoding="UTF-8"?>
<svg version="1.1" xmlns="http://www.w3.org/2000/svg" width="1080" height="1080">
<path d="M0 0 C1.10515961 -0.00335861 2.21031921 -0.00671722 3.34896851 -0.01017761 C6.9861566 -0.01964161 10.62329843 -0.02162841 14.26049805 -0.02270508 C16.80104084 -0.02592073 19.34158345 -0.02928503 21.88212585 -0.03279114 C27.20218408 -0.03877096 32.52222522 -0.04067519 37.84228516 -0.04003906 C43.96684749 -0.03943888 50.09132159 -0.04998474 56.21586162 -0.06578273 C62.13612498 -0.08050234 68.05636173 -0.08402528 73.97664452 -0.08342934 C76.48232572 -0.08460524 78.98800766 -0.08900502 81.49367714 -0.0967617 C85.00627482 -0.10661793 88.5186483 -0.10366132 92.03125 -0.09765625 C93.5660778 -0.10608551 93.5660778 -0.10608551 95.13191223 -0.11468506 C111.8888944 -0.04231288 111.8888944 -0.04231288 117.7722168 4.52026367 C121.62937699 9.74609361 121.99692065 13.71485745 121.96419239 20.13495541 C121.96900211 21.51987699 121.96900211 21.51987699 121.97390899 22.93277678 C121.98225937 26.04956118 121.97626712 29.16615592 121.97041321 32.28294373 C121.97343159 34.53084998 121.97731949 36.7787552 121.98200577 39.02665859 C121.99233484 45.22184341 121.99009152 51.41697068 121.98582518 57.61216033 C121.9836191 63.60154036 121.99075925 69.59090723 121.99758544 75.58028215 C122.01284415 89.34746287 122.0145286 103.11462523 122.01206241 116.88181262 C122.01023138 127.5109686 122.01198536 138.14011854 122.01628685 148.76927376 C122.01688924 150.29511851 122.01749044 151.82096326 122.01809045 153.34680801 C122.01899768 155.6459683 122.01990635 157.94512859 122.0208228 160.24428887 C122.02925516 181.62694511 122.03358606 203.00959907 122.02941608 224.39225674 C122.02925971 225.19872542 122.02910333 226.00519411 122.02894222 226.83610124 C122.02813641 230.92381748 122.02729064 235.01153372 122.02642892 239.09924995 C122.02625783 239.91111672 122.02608674 240.7229835 122.02591047 241.55945229 C122.02556381 243.20124473 122.02521528 244.84303717 122.02486488 246.48482961 C122.01950662 272.03612401 122.02743991 297.58738391 122.04589844 323.13867188 C122.06660143 351.83063307 122.07734444 380.52257289 122.07332295 409.21454197 C122.07292759 412.27217392 122.07256605 415.32980587 122.07222557 418.38743782 C122.07213484 419.14033172 122.07204411 419.89322561 122.07195063 420.66893447 C122.0707833 432.04833078 122.07744316 443.42770555 122.08803749 454.80709648 C122.1000696 467.7441952 122.10167144 480.68124638 122.08924732 493.61834579 C122.08318852 500.22341326 122.0823207 506.82840648 122.09424973 513.43346977 C122.10503279 519.4740289 122.10209617 525.51441645 122.08798804 531.55496729 C122.08532009 533.74603919 122.08777267 535.93712421 122.0957239 538.1281833 C122.10574915 541.09557607 122.09747731 544.06236303 122.08444691 547.0297308 C122.09175625 547.8898206 122.0990656 548.74991041 122.10659644 549.63606355 C122.06300447 554.39180644 121.56165353 557.16624928 118.7097168 561.14526367 C118.2580395 563.78847452 118.2580395 563.78847452 118.31098938 566.60591125 C118.29845123 567.6897963 118.28591309 568.77368134 118.272995 569.89041138 C118.27443008 571.06932953 118.27586517 572.24824768 118.27734375 573.46289062 C118.26205627 575.33667137 118.26205627 575.33667137 118.24645996 577.24830627 C118.22147122 580.66538174 118.20960928 584.08202757 118.20360589 587.49915719 C118.19421518 591.07333213 118.16801126 594.6473831 118.14360046 598.22148132 C118.09995085 604.98573995 118.0713945 611.74997449 118.04827708 618.51433104 C118.02121712 626.21691111 117.97730613 633.91936637 117.93198836 641.62185729 C117.83916414 657.46292857 117.7674733 673.30402337 117.7097168 689.14526367 C118.6997168 689.47526367 119.6897168 689.80526367 120.7097168 690.14526367 C121.94516985 693.85162282 121.85448078 697.28118592 121.85015869 701.14108276 C121.85461537 702.3769523 121.85461537 702.3769523 121.85916209 703.63778889 C121.86785824 706.40835709 121.86935811 709.17888212 121.87084961 711.94946289 C121.87547709 713.93191623 121.88050165 715.91436867 121.88589478 717.89682007 C121.89902644 723.28936781 121.90546508 728.68190309 121.90990543 734.07446432 C121.91283456 737.44163398 121.91693904 740.80880023 121.92140961 744.17596817 C121.93508576 754.70571943 121.94475218 765.2354629 121.9486115 775.76522243 C121.95309448 787.93050038 121.97065309 800.0956661 121.99961209 812.26090991 C122.02120716 821.65800072 122.03131459 831.0550599 122.03265262 840.45217526 C122.03370209 846.06773828 122.0396402 851.68319581 122.05747223 857.29873276 C122.07391558 862.57971604 122.0761266 867.86051411 122.06733322 873.14151382 C122.06656088 875.08094019 122.07093146 877.02037637 122.08079147 878.95977783 C122.09345355 881.60523323 122.08766559 884.25002694 122.07720947 886.89547729 C122.08526588 887.66483828 122.09332228 888.43419927 122.10162282 889.22687423 C122.05945654 893.78113932 121.28305927 896.41902739 118.7097168 900.14526367 C118.03298233 903.54847301 118.03298233 903.54847301 117.7097168 907.14526367 C116.98390628 914.16143204 115.05301943 918.46987386 109.7097168 923.14526367 C106.73538943 924.13670613 104.77935154 924.27550387 101.67507935 924.28570557 C100.1146994 924.29427078 100.1146994 924.29427078 98.52279663 924.30300903 C97.38194611 924.30412689 96.24109558 924.30524475 95.06567383 924.30639648 C93.26289978 924.31384384 93.26289978 924.31384384 91.42370605 924.32144165 C88.12611625 924.33355017 84.82858985 924.34100827 81.53098536 924.34545231 C79.4703904 924.3483846 77.40980099 924.35248969 75.34920883 924.35695648 C68.90086427 924.37062786 62.4525324 924.38029652 56.00417435 924.38415837 C48.56258783 924.3886397 41.12118493 924.40619238 33.67965424 924.43515897 C27.9258439 924.45677805 22.17208523 924.46686276 16.41823471 924.46819949 C12.98240655 924.46924728 9.5467511 924.4751494 6.11096573 924.4930191 C2.27809984 924.51256666 -1.55453661 924.5082099 -5.38745117 924.50170898 C-7.09265427 924.51553116 -7.09265427 924.51553116 -8.83230591 924.52963257 C-9.87819885 924.52406342 -10.9240918 924.51849426 -12.00167847 924.51275635 C-12.90759169 924.51422291 -13.81350491 924.51568947 -14.74687004 924.51720047 C-19.4762038 923.82560491 -22.5827923 921.18623285 -25.5402832 917.58276367 C-26.29051758 916.68364258 -26.29051758 916.68364258 -27.0559082 915.76635742 C-29.60631716 912.41692794 -29.40987543 909.98817899 -29.39822197 905.82350254 C-29.39754195 904.83475318 -29.39754195 904.83475318 -29.3968482 903.82602909 C-29.3941212 901.59561801 -29.38422504 899.36529363 -29.3744812 897.13490295 C-29.37117398 895.52822039 -29.3683348 893.92153681 -29.36592591 892.31485265 C-29.35974738 888.81025746 -29.35044663 885.30568875 -29.33882332 881.80110741 C-29.32001424 876.09952896 -29.3081468 870.39794891 -29.29750061 864.6963501 C-29.28578776 858.55806712 -29.27372537 852.41978637 -29.25953174 846.28150856 C-29.22470222 831.05236667 -29.20858794 815.82328058 -29.20388794 800.59410095 C-29.20333319 798.94339325 -29.20333319 798.94339325 -29.20276724 797.25933791 C-29.19979187 788.19366676 -29.19761549 779.12799546 -29.19586644 770.062324 C-29.19427907 761.89001902 -29.19200934 753.71771464 -29.1887207 745.54541016 C-29.1882604 744.3800962 -29.1878001 743.21478224 -29.18732585 742.01415574 C-29.17877776 723.14258051 -29.13434718 704.27124307 -29.07754336 685.39975888 C-29.02014672 666.03003075 -29.00457295 646.66058329 -29.02694714 627.29078192 C-29.0393664 615.34124598 -29.018719 603.3927004 -28.955651 591.44332045 C-28.91546042 583.24947276 -28.91563701 575.05624606 -28.94745104 566.86236406 C-28.96459187 562.13538763 -28.96393896 557.4101877 -28.91510582 552.68339348 C-28.87073454 548.35123075 -28.87750938 544.02219823 -28.92411484 539.69008677 C-28.93204342 538.12735651 -28.92155875 536.56439522 -28.89029215 535.00195766 C-28.7550809 527.77870956 -29.02768375 521.74444983 -34.02691061 516.17003959 C-38.21659439 511.98362103 -41.2865768 509.63556015 -47.2902832 509.14526367 C-47.2902832 510.13526367 -47.2902832 511.12526367 -47.2902832 512.14526367 C-49.91368905 515.25448542 -52.79003474 517.1326208 -56.2902832 519.14526367 C-56.9502832 519.68151367 -57.6102832 520.21776367 -58.2902832 520.77026367 C-60.61339739 522.36740468 -62.52112713 522.76065866 -65.2902832 523.14526367 C-65.2902832 523.80526367 -65.2902832 524.46526367 -65.2902832 525.14526367 C-69.1796622 528.84943414 -72.10322518 530.57708334 -77.2902832 532.14526367 C-77.6202832 532.80526367 -77.9502832 533.46526367 -78.2902832 534.14526367 C-78.9502832 534.45463867 -79.6102832 534.76401367 -80.2902832 535.08276367 C-82.63636542 536.03444827 -82.63636542 536.03444827 -83.2902832 539.14526367 C-85.4699707 540.75073242 -85.4699707 540.75073242 -88.1652832 542.33276367 C-89.04958008 542.86256836 -89.93387695 543.39237305 -90.8449707 543.93823242 C-93.2902832 545.14526367 -93.2902832 545.14526367 -96.2902832 545.14526367 C-96.6202832 546.13526367 -96.9502832 547.12526367 -97.2902832 548.14526367 C-99.1809082 549.68041992 -99.1809082 549.68041992 -101.5402832 551.20776367 C-102.30856445 551.71436523 -103.0768457 552.2209668 -103.8684082 552.74291992 C-106.28838268 554.14416321 -108.68189198 555.14856134 -111.2902832 556.14526367 C-112.8680957 556.94963867 -112.8680957 556.94963867 -114.4777832 557.77026367 C-117.2902832 559.14526367 -117.2902832 559.14526367 -119.2902832 559.14526367 C-119.2902832 559.80526367 -119.2902832 560.46526367 -119.2902832 561.14526367 C-122.8449182 564.52650184 -125.75116044 566.43272683 -130.36450195 568.19213867 C-133.64700408 569.81674419 -136.30880056 572.25135975 -139.0793457 574.62182617 C-141.51775525 576.30200236 -143.37816789 576.76719958 -146.2902832 577.14526367 C-146.6202832 578.13526367 -146.9502832 579.12526367 -147.2902832 580.14526367 C-150.19635304 583.05133351 -152.59308088 584.35737897 -156.5402832 585.20776367 C-157.7777832 585.51713867 -159.0152832 585.82651367 -160.2902832 586.14526367 C-160.6202832 587.13526367 -160.9502832 588.12526367 -161.2902832 589.14526367 C-164.80478304 592.41412642 -168.43562035 594.70393068 -173.2902832 595.14526367 C-173.6202832 596.13526367 -173.9502832 597.12526367 -174.2902832 598.14526367 C-177.19635304 601.05133351 -179.59308088 602.35737897 -183.5402832 603.20776367 C-184.7777832 603.51713867 -186.0152832 603.82651367 -187.2902832 604.14526367 C-187.6202832 605.13526367 -187.9502832 606.12526367 -188.2902832 607.14526367 C-191.80478304 610.41412642 -195.43562035 612.70393068 -200.2902832 613.14526367 C-200.6202832 614.13526367 -200.9502832 615.12526367 -201.2902832 616.14526367 C-205.81217613 620.52584744 -211.44545826 622.69005105 -217.2512207 624.88745117 C-221.60856832 626.58091815 -224.09779561 628.78475042 -227.2902832 632.14526367 C-229.47977202 633.58571684 -231.71389642 634.83560215 -234.02075195 636.07495117 C-236.8518652 637.63236528 -239.0827186 638.93140923 -241.3527832 641.27026367 C-243.2902832 643.14526367 -243.2902832 643.14526367 -246.2277832 644.08276367 C-249.96134556 645.37808122 -251.590364 647.30688708 -254.2902832 650.14526367 C-256.47977202 651.58571684 -258.71389642 652.83560215 -261.02075195 654.07495117 C-263.8518652 655.63236528 -266.0827186 656.93140923 -268.3527832 659.27026367 C-270.2902832 661.14526367 -270.2902832 661.14526367 -273.2277832 662.08276367 C-276.96134556 663.37808122 -278.590364 665.30688708 -281.2902832 668.14526367 C-284.59381599 670.45773662 -287.29910373 671.57509518 -291.2902832 672.14526367 C-291.2902832 672.80526367 -291.2902832 673.46526367 -291.2902832 674.14526367 C-294.31899635 677.02975238 -296.36728849 678.84387764 -300.3527832 680.14526367 C-304.01879519 681.39326775 -305.64433631 683.36362719 -308.2902832 686.14526367 C-311.59381599 688.45773662 -314.29910373 689.57509518 -318.2902832 690.14526367 C-318.6202832 691.13526367 -318.9502832 692.12526367 -319.2902832 693.14526367 C-323.12525842 697.08776156 -327.41529364 700.58589415 -332.2902832 703.14526367 C-332.9193457 703.48428711 -333.5484082 703.82331055 -334.1965332 704.17260742 C-337.86706664 706.09689827 -341.12374953 707.62444696 -345.2902832 708.14526367 C-345.6202832 709.13526367 -345.9502832 710.12526367 -346.2902832 711.14526367 C-347.77856445 712.49682617 -347.77856445 712.49682617 -349.6027832 713.77026367 C-350.19704102 714.1956543 -350.79129883 714.62104492 -351.40356445 715.05932617 C-353.2902832 716.14526367 -353.2902832 716.14526367 -355.35668945 716.63354492 C-358.455372 717.4536003 -360.09975648 719.89709151 -362.2902832 722.14526367 C-362.9502832 722.14526367 -363.6102832 722.14526367 -364.2902832 722.14526367 C-364.2902832 722.80526367 -364.2902832 723.46526367 -364.2902832 724.14526367 C-364.85618164 724.25483398 -365.42208008 724.3644043 -366.00512695 724.47729492 C-366.73860352 724.63584961 -367.47208008 724.7944043 -368.2277832 724.95776367 C-368.95868164 725.10858398 -369.68958008 725.2594043 -370.44262695 725.41479492 C-371.05235352 725.65584961 -371.66208008 725.8969043 -372.2902832 726.14526367 C-372.6202832 727.13526367 -372.9502832 728.12526367 -373.2902832 729.14526367 C-376.80478304 732.41412642 -380.43562035 734.70393068 -385.2902832 735.14526367 C-385.6202832 736.13526367 -385.9502832 737.12526367 -386.2902832 738.14526367 C-390.13832799 741.25606623 -394.30023288 743.67744645 -399.2902832 744.14526367 C-399.6202832 745.13526367 -399.9502832 746.12526367 -400.2902832 747.14526367 C-404.1472978 750.82164674 -407.92000677 752.75231662 -413.2902832 753.14526367 C-413.2902832 754.13526367 -413.2902832 755.12526367 -413.2902832 756.14526367 C-417.01290638 759.34136198 -421.36778333 761.68377931 -426.2902832 762.14526367 C-426.6202832 763.13526367 -426.9502832 764.12526367 -427.2902832 765.14526367 C-431.1472978 768.82164674 -434.92000677 770.75231662 -440.2902832 771.14526367 C-440.2902832 772.13526367 -440.2902832 773.12526367 -440.2902832 774.14526367 C-442.4777832 775.64526367 -442.4777832 775.64526367 -445.2902832 777.14526367 C-446.1565332 777.70213867 -447.0227832 778.25901367 -447.9152832 778.83276367 C-450.2902832 780.14526367 -450.2902832 780.14526367 -453.2902832 780.14526367 C-453.6202832 781.13526367 -453.9502832 782.12526367 -454.2902832 783.14526367 C-456.1809082 784.68041992 -456.1809082 784.68041992 -458.5402832 786.20776367 C-459.30856445 786.71436523 -460.0768457 787.2209668 -460.8684082 787.74291992 C-464.34860671 789.75806712 -467.93438431 791.02231678 -471.7277832 792.33276367 C-475.55061494 794.27771315 -477.04289325 796.03906277 -479.63012695 799.30932617 C-483.57561693 803.67257391 -488.99812392 806.45503312 -494.1027832 809.27026367 C-497.27393353 810.94556325 -497.27393353 810.94556325 -499.2902832 813.20776367 C-503.5891877 817.3723274 -509.83715511 818.6975933 -515.4699707 820.30151367 C-516.37102539 820.71916992 -516.37102539 820.71916992 -517.2902832 821.14526367 C-517.6202832 822.13526367 -517.9502832 823.12526367 -518.2902832 824.14526367 C-522.12525842 828.08776156 -526.41529364 831.58589415 -531.2902832 834.14526367 C-531.9193457 834.48428711 -532.5484082 834.82331055 -533.1965332 835.17260742 C-536.86706664 837.09689827 -540.12374953 838.62444696 -544.2902832 839.14526367 C-544.6202832 840.13526367 -544.9502832 841.12526367 -545.2902832 842.14526367 C-548.80478304 845.41412642 -552.43562035 847.70393068 -557.2902832 848.14526367 C-557.6202832 849.13526367 -557.9502832 850.12526367 -558.2902832 851.14526367 C-561.19635304 854.05133351 -563.59308088 855.35737897 -567.5402832 856.20776367 C-568.7777832 856.51713867 -570.0152832 856.82651367 -571.2902832 857.14526367 C-571.6202832 858.13526367 -571.9502832 859.12526367 -572.2902832 860.14526367 C-575.80478304 863.41412642 -579.43562035 865.70393068 -584.2902832 866.14526367 C-584.6202832 867.13526367 -584.9502832 868.12526367 -585.2902832 869.14526367 C-588.19635304 872.05133351 -590.59308088 873.35737897 -594.5402832 874.20776367 C-595.7777832 874.51713867 -597.0152832 874.82651367 -598.2902832 875.14526367 C-598.6202832 876.13526367 -598.9502832 877.12526367 -599.2902832 878.14526367 C-602.80478304 881.41412642 -606.43562035 883.70393068 -611.2902832 884.14526367 C-611.6202832 885.13526367 -611.9502832 886.12526367 -612.2902832 887.14526367 C-615.19635304 890.05133351 -617.59308088 891.35737897 -621.5402832 892.20776367 C-622.7777832 892.51713867 -624.0152832 892.82651367 -625.2902832 893.14526367 C-625.6202832 894.13526367 -625.9502832 895.12526367 -626.2902832 896.14526367 C-628.2512207 897.71557617 -628.2512207 897.71557617 -630.6652832 899.27026367 C-631.85250977 900.04756836 -631.85250977 900.04756836 -633.0637207 900.84057617 C-635.2902832 902.14526367 -635.2902832 902.14526367 -638.2902832 903.14526367 C-638.9915332 903.92901367 -639.6927832 904.71276367 -640.4152832 905.52026367 C-644.0599167 908.84797252 -647.3926456 910.46246049 -652.2902832 911.14526367 C-657.75146441 909.75682777 -661.97701682 906.69266619 -665.2902832 902.14526367 C-666.39902121 898.76965359 -666.41583422 895.59904066 -666.41678303 892.0629335 C-666.41954278 890.80528566 -666.42230252 889.54763781 -666.42514589 888.25187942 C-666.42315792 886.85081674 -666.42107845 885.44975418 -666.41891766 884.04869175 C-666.42026363 882.55840924 -666.42204713 881.06812707 -666.42422989 879.57784554 C-666.42897712 875.45862909 -666.42745268 871.33943464 -666.42495212 867.22021708 C-666.42332422 862.74789429 -666.42745554 858.2755763 -666.43086129 853.80325502 C-666.43602505 845.95695973 -666.43743081 838.1106706 -666.43640518 830.26437378 C-666.43488376 818.59686456 -666.43903418 806.9293622 -666.44427981 795.26185431 C-666.4539648 773.21456031 -666.45676447 751.16726864 -666.45733687 729.11997277 C-666.45779588 712.09922723 -666.45985146 695.0784826 -666.46303749 678.05773735 C-666.46393499 673.16366639 -666.4648248 668.26959543 -666.46571237 663.37552446 C-666.46593342 662.15895268 -666.46615446 660.94238089 -666.46638221 659.6889433 C-666.47253873 625.45654681 -666.47648254 591.22415064 -666.47603893 556.99175358 C-666.47602335 555.70038959 -666.47600778 554.4090256 -666.47599172 553.07852936 C-666.47590861 546.53290151 -666.47580957 539.98727366 -666.47570702 533.44164581 C-666.47568707 532.14158777 -666.47566713 530.84152972 -666.47564658 529.50207598 C-666.47560614 526.87304128 -666.47556434 524.24400657 -666.47552119 521.61497186 C-666.47490821 480.69708707 -666.48241804 439.77921055 -666.49609375 398.86132812 C-666.51144059 352.92413842 -666.52006083 306.98695415 -666.51913053 261.04976171 C-666.51905589 256.15537639 -666.51900719 251.26099108 -666.51897621 246.36660576 C-666.51896456 245.16142166 -666.5189529 243.95623755 -666.5189409 242.71453272 C-666.51891007 223.28594382 -666.52530689 203.85736208 -666.53390848 184.42877532 C-666.54236832 164.91740025 -666.54338803 145.40603571 -666.53679916 125.89465982 C-666.53309243 114.29129605 -666.53496919 102.68796418 -666.5447415 91.08460376 C-666.55071199 83.34388709 -666.54947892 75.60319369 -666.542271 67.86247812 C-666.53836456 63.44548726 -666.53768485 59.02855844 -666.54572835 54.6115718 C-666.55297385 50.59785968 -666.55111037 46.58426161 -666.54180448 42.57055468 C-666.54007502 41.12323374 -666.54173784 39.67590401 -666.54710569 38.22859199 C-666.55388635 36.27005256 -666.54721461 34.31148025 -666.53983086 32.352943 C-666.53991909 31.26649703 -666.54000731 30.18005106 -666.5400982 29.06068248 C-666.14448175 24.44371527 -664.72254406 21.021266 -661.3527832 17.83276367 C-657.344253 14.5415494 -653.77516641 14.60475928 -648.7434082 14.83666992 C-643.0452295 15.55347903 -640.61376336 18.57720666 -636.88012695 22.70385742 C-633.31385746 26.51738826 -630.21079649 28.37387889 -625.2902832 30.14526367 C-625.2902832 30.80526367 -625.2902832 31.46526367 -625.2902832 32.14526367 C-624.3002832 32.16588867 -623.3102832 32.18651367 -622.2902832 32.20776367 C-617.81212343 32.82046964 -615.53745497 35.3310504 -612.35668945 38.35620117 C-609.27671217 41.02279776 -605.99697821 42.49048912 -602.2902832 44.14526367 C-602.2902832 44.80526367 -602.2902832 45.46526367 -602.2902832 46.14526367 C-599.52553003 47.56839059 -596.73124485 48.78542661 -593.8527832 49.95776367 C-589.77263389 51.74904873 -587.41119863 53.94632535 -584.2902832 57.14526367 C-581.36605467 58.96235644 -578.3539578 60.57671567 -575.2902832 62.14526367 C-575.2902832 62.80526367 -575.2902832 63.46526367 -575.2902832 64.14526367 C-572.52553003 65.56839059 -569.73124485 66.78542661 -566.8527832 67.95776367 C-562.77263389 69.74904873 -560.41119863 71.94632535 -557.2902832 75.14526367 C-554.36605467 76.96235644 -551.3539578 78.57671567 -548.2902832 80.14526367 C-548.2902832 80.80526367 -548.2902832 81.46526367 -548.2902832 82.14526367 C-545.52553003 83.56839059 -542.73124485 84.78542661 -539.8527832 85.95776367 C-535.77263389 87.74904873 -533.41119863 89.94632535 -530.2902832 93.14526367 C-527.36605467 94.96235644 -524.3539578 96.57671567 -521.2902832 98.14526367 C-521.2902832 98.80526367 -521.2902832 99.46526367 -521.2902832 100.14526367 C-519.94063477 100.02924805 -519.94063477 100.02924805 -518.5637207 99.91088867 C-514.59289274 100.19519616 -513.65638976 101.10320718 -510.9152832 103.89526367 C-508.13789096 106.5565442 -505.83411688 108.57910516 -502.2902832 110.08276367 C-498.70009539 111.66813374 -496.53276524 113.78878369 -493.8527832 116.64526367 C-489.77587897 120.95655439 -485.88169032 123.25502439 -480.2902832 125.14526367 C-480.2902832 125.80526367 -480.2902832 126.46526367 -480.2902832 127.14526367 C-479.6715332 127.43401367 -479.0527832 127.72276367 -478.4152832 128.02026367 C-476.2902832 129.14526367 -476.2902832 129.14526367 -474.2902832 131.14526367 C-471.97379521 132.18368932 -469.64125297 133.18746118 -467.2902832 134.14526367 C-467.2902832 134.80526367 -467.2902832 135.46526367 -467.2902832 136.14526367 C-466.3002832 136.16588867 -465.3102832 136.18651367 -464.2902832 136.20776367 C-459.80298907 136.82171941 -457.52356106 139.34370955 -454.3371582 142.37573242 C-451.78325383 144.5835925 -449.14344689 145.79943913 -446.09106445 147.18041992 C-444.2902832 148.14526367 -444.2902832 148.14526367 -441.7902832 150.70776367 C-439.37205477 153.06553639 -438.35343318 153.6337384 -435.2902832 154.64526367 C-431.23766053 155.98859111 -429.28573969 158.07674727 -426.2902832 161.14526367 C-424.81293239 162.01812048 -423.3102665 162.8489627 -421.7902832 163.64526367 C-418.82861208 165.19684756 -417.10793055 166.33206396 -414.7277832 168.77026367 C-412.35126792 171.08584267 -411.30893216 171.64466867 -408.2902832 172.64526367 C-404.23766053 173.98859111 -402.28573969 176.07674727 -399.2902832 179.14526367 C-397.81293239 180.01812048 -396.3102665 180.8489627 -394.7902832 181.64526367 C-391.8659069 183.17959927 -390.13634305 184.30305233 -387.7902832 186.70776367 C-384.41198111 190.00160821 -380.64161289 191.44833989 -376.2902832 193.14526367 C-376.2902832 193.80526367 -376.2902832 194.46526367 -376.2902832 195.14526367 C-375.44723633 195.55905273 -375.44723633 195.55905273 -374.5871582 195.98120117 C-372.20409526 197.18894396 -369.87238241 198.46703176 -367.5402832 199.77026367 C-366.74106445 200.2162793 -365.9418457 200.66229492 -365.1184082 201.12182617 C-364.51512695 201.45956055 -363.9118457 201.79729492 -363.2902832 202.14526367 C-363.2902832 202.80526367 -363.2902832 203.46526367 -363.2902832 204.14526367 C-362.6509082 204.37213867 -362.0115332 204.59901367 -361.3527832 204.83276367 C-357.15708059 206.63092193 -353.25127764 208.88430388 -349.2902832 211.14526367 C-349.2902832 211.80526367 -349.2902832 212.46526367 -349.2902832 213.14526367 C-348.44723633 213.55905273 -348.44723633 213.55905273 -347.5871582 213.98120117 C-345.20409526 215.18894396 -342.87238241 216.46703176 -340.5402832 217.77026367 C-339.74106445 218.2162793 -338.9418457 218.66229492 -338.1184082 219.12182617 C-337.51512695 219.45956055 -336.9118457 219.79729492 -336.2902832 220.14526367 C-336.2902832 220.80526367 -336.2902832 221.46526367 -336.2902832 222.14526367 C-335.3002832 222.14526367 -334.3102832 222.14526367 -333.2902832 222.14526367 C-333.2902832 222.80526367 -333.2902832 223.46526367 -333.2902832 224.14526367 C-332.5890332 224.41338867 -331.8877832 224.68151367 -331.1652832 224.95776367 C-328.12530081 226.21340857 -325.2175058 227.6476149 -322.2902832 229.14526367 C-322.2902832 229.80526367 -322.2902832 230.46526367 -322.2902832 231.14526367 C-319.41009044 232.61178384 -316.49719805 233.96574242 -313.5402832 235.27026367 C-312.74106445 235.6234668 -311.9418457 235.97666992 -311.1184082 236.34057617 C-310.51512695 236.60612305 -309.9118457 236.87166992 -309.2902832 237.14526367 C-309.2902832 238.13526367 -309.2902832 239.12526367 -309.2902832 240.14526367 C-308.3002832 240.16588867 -307.3102832 240.18651367 -306.2902832 240.20776367 C-301.03151908 240.94080352 -297.9653603 244.59043449 -294.2902832 248.14526367 C-290.55157965 251.59706432 -287.29744842 253.83386326 -282.2902832 255.14526367 C-282.2902832 256.13526367 -282.2902832 257.12526367 -282.2902832 258.14526367 C-281.5065332 258.43401367 -280.7227832 258.72276367 -279.9152832 259.02026367 C-277.2902832 260.14526367 -277.2902832 260.14526367 -275.2902832 262.14526367 C-272.97379521 263.18368932 -270.64125297 264.18746118 -268.2902832 265.14526367 C-268.2902832 265.80526367 -268.2902832 266.46526367 -268.2902832 267.14526367 C-267.3002832 267.16588867 -266.3102832 267.18651367 -265.2902832 267.20776367 C-260.81212343 267.82046964 -258.53745497 270.3310504 -255.35668945 273.35620117 C-252.27671217 276.02279776 -248.99697821 277.49048912 -245.2902832 279.14526367 C-245.2902832 279.80526367 -245.2902832 280.46526367 -245.2902832 281.14526367 C-244.40276367 281.54938477 -244.40276367 281.54938477 -243.49731445 281.96166992 C-241.3031948 283.1383394 -239.78599104 284.38675966 -237.9777832 286.08276367 C-234.61930456 289.0559623 -231.48585556 290.60403301 -227.2902832 292.14526367 C-227.2902832 292.80526367 -227.2902832 293.46526367 -227.2902832 294.14526367 C-226.3621582 294.26901367 -225.4340332 294.39276367 -224.4777832 294.52026367 C-221.2902832 295.14526367 -221.2902832 295.14526367 -218.2902832 297.14526367 C-218.2902832 297.80526367 -218.2902832 298.46526367 -218.2902832 299.14526367 C-215.52553003 300.56839059 -212.73124485 301.78542661 -209.8527832 302.95776367 C-205.79248939 304.75570423 -203.2530882 306.78207963 -200.2902832 310.14526367 C-196.28352418 314.61477514 -192.9743244 317.09900884 -187.2902832 319.14526367 C-187.2902832 319.80526367 -187.2902832 320.46526367 -187.2902832 321.14526367 C-186.3002832 321.16588867 -185.3102832 321.18651367 -184.2902832 321.20776367 C-179.81212343 321.82046964 -177.53745497 324.3310504 -174.35668945 327.35620117 C-171.27671217 330.02279776 -167.99697821 331.49048912 -164.2902832 333.14526367 C-164.2902832 333.80526367 -164.2902832 334.46526367 -164.2902832 335.14526367 C-163.73856445 335.42112305 -163.1868457 335.69698242 -162.6184082 335.98120117 C-158.5090332 338.03588867 -154.3996582 340.09057617 -150.2902832 342.14526367 C-150.2902832 342.80526367 -150.2902832 343.46526367 -150.2902832 344.14526367 C-149.72825195 344.42112305 -149.1662207 344.69698242 -148.5871582 344.98120117 C-146.20409526 346.18894396 -143.87238241 347.46703176 -141.5402832 348.77026367 C-140.74106445 349.2162793 -139.9418457 349.66229492 -139.1184082 350.12182617 C-138.51512695 350.45956055 -137.9118457 350.79729492 -137.2902832 351.14526367 C-137.2902832 351.80526367 -137.2902832 352.46526367 -137.2902832 353.14526367 C-136.46270508 353.55905273 -136.46270508 353.55905273 -135.6184082 353.98120117 C-131.5090332 356.03588867 -127.3996582 358.09057617 -123.2902832 360.14526367 C-123.2902832 360.80526367 -123.2902832 361.46526367 -123.2902832 362.14526367 C-122.3621582 362.57838867 -122.3621582 362.57838867 -121.4152832 363.02026367 C-119.2902832 364.14526367 -119.2902832 364.14526367 -117.2902832 366.14526367 C-114.97379521 367.18368932 -112.64125297 368.18746118 -110.2902832 369.14526367 C-110.2902832 369.80526367 -110.2902832 370.46526367 -110.2902832 371.14526367 C-109.46270508 371.55905273 -109.46270508 371.55905273 -108.6184082 371.98120117 C-104.5090332 374.03588867 -100.3996582 376.09057617 -96.2902832 378.14526367 C-96.2902832 378.80526367 -96.2902832 379.46526367 -96.2902832 380.14526367 C-95.3621582 380.57838867 -95.3621582 380.57838867 -94.4152832 381.02026367 C-92.2902832 382.14526367 -92.2902832 382.14526367 -90.2902832 384.14526367 C-87.97379521 385.18368932 -85.64125297 386.18746118 -83.2902832 387.14526367 C-83.2902832 387.80526367 -83.2902832 388.46526367 -83.2902832 389.14526367 C-82.46270508 389.55905273 -82.46270508 389.55905273 -81.6184082 389.98120117 C-77.5090332 392.03588867 -73.3996582 394.09057617 -69.2902832 396.14526367 C-69.2902832 396.80526367 -69.2902832 397.46526367 -69.2902832 398.14526367 C-68.4240332 398.22776367 -67.5577832 398.31026367 -66.6652832 398.39526367 C-59.85419083 399.90883975 -55.08221147 404.64792799 -50.8215332 409.98510742 C-47.77764414 413.92102315 -47.77764414 413.92102315 -43.4152832 416.08276367 C-42.7140332 416.10338867 -42.0127832 416.12401367 -41.2902832 416.14526367 C-40.9602832 415.15526367 -40.6302832 414.16526367 -40.2902832 413.14526367 C-38.73168945 411.64526367 -38.73168945 411.64526367 -36.8527832 410.14526367 C-34.40253689 408.18097435 -33.07647742 406.824555 -31.2902832 404.14526367 C-30.6302832 404.14526367 -29.9702832 404.14526367 -29.2902832 404.14526367 C-29.29180208 403.31808189 -29.29332097 402.4909001 -29.29488587 401.63865221 C-29.38435404 352.63785559 -29.4530071 303.63706761 -29.49454452 254.6362057 C-29.49954748 248.75559858 -29.50472476 242.87499163 -29.51000977 236.99438477 C-29.51158363 235.23826407 -29.51158363 235.23826407 -29.51318929 233.4466662 C-29.5306053 214.47790527 -29.56214958 195.50919272 -29.59889439 176.54046051 C-29.63627051 157.08388105 -29.65851201 137.62732696 -29.66663718 118.17071307 C-29.67213186 106.16019899 -29.68950046 94.14982165 -29.72194907 82.13934965 C-29.74305587 73.90878909 -29.74949195 65.67829945 -29.74428871 57.44771378 C-29.74172096 52.69560132 -29.74571979 47.94372817 -29.7671051 43.19165802 C-29.78653372 38.8427227 -29.78757732 34.49418821 -29.77387878 30.14523466 C-29.77218511 28.5704331 -29.77729065 26.99560679 -29.78981593 25.42085414 C-29.80584182 23.28193127 -29.79723579 21.14446003 -29.78247452 19.00555992 C-29.7839934 17.81703529 -29.78551228 16.62851065 -29.78707719 15.40397012 C-28.98548616 10.14595586 -26.17962675 7.05481957 -22.5402832 3.33276367 C-16.08707064 -1.01074478 -7.5475071 -0.00332309 0 0 Z " fill="#000000" transform="translate(812.290283203125,90.854736328125)"/>
</svg>
