<?xml version="1.0" encoding="UTF-8"?>
<svg version="1.1" xmlns="http://www.w3.org/2000/svg" width="1080" height="1080">
<path d="M0 0 C1.10720398 -0.00350464 2.21440796 -0.00700928 3.35516357 -0.01062012 C6.98090052 -0.01935528 10.60643913 -0.01361778 14.23217773 -0.00683594 C16.77082862 -0.00818485 19.30947926 -0.01012727 21.84812927 -0.01263428 C27.15447705 -0.01557434 32.46075501 -0.01151715 37.76708984 -0.00195312 C43.87754246 0.00893394 49.9878616 0.0053975 56.09831101 -0.00560594 C62.00951583 -0.01581916 67.92067965 -0.01468289 73.83189201 -0.00884247 C76.33281409 -0.00751325 78.8337396 -0.00912805 81.33465767 -0.01380157 C84.83517471 -0.01890891 88.33543916 -0.01109771 91.8359375 0 C92.85803818 -0.00404846 93.88013885 -0.00809692 94.93321228 -0.01226807 C110.47806028 0.07853412 110.47806028 0.07853412 115.82592773 4.13378906 C116.35057617 4.83503906 116.87522461 5.53628906 117.41577148 6.25878906 C117.96362305 6.96003906 118.51147461 7.66128906 119.07592773 8.38378906 C121.5187063 11.96951907 121.47770424 14.28652822 121.47631931 18.626894 C121.47747316 19.29104417 121.478627 19.95519434 121.47981581 20.63947028 C121.48248325 22.88671614 121.47795927 25.13389175 121.473526 27.38113403 C121.47396168 28.99978206 121.47483652 30.61843002 121.47611517 32.23707759 C121.47836084 36.70198477 121.47433785 41.16686814 121.46933711 45.63177228 C121.46503383 50.44023468 121.46647894 55.24869564 121.46723938 60.05715942 C121.46776469 68.39379318 121.46461712 76.73041914 121.45900154 85.06705093 C121.45088754 97.12054261 121.44827142 109.17403051 121.44701355 121.22752462 C121.44482287 140.7817308 121.43816236 160.33593281 121.42871094 179.89013672 C121.41953722 198.88948546 121.41245619 217.88883308 121.40820312 236.88818359 C121.4079404 238.05856041 121.40767768 239.22893723 121.40740699 240.43478002 C121.40610199 246.30599467 121.40483827 252.17720934 121.40359509 258.04842401 C121.39322199 306.78521524 121.37560325 355.52200195 121.35327148 404.25878906 C122.67327148 404.91878906 123.99327148 405.57878906 125.35327148 406.25878906 C125.35327148 406.91878906 125.35327148 407.57878906 125.35327148 408.25878906 C125.91014648 408.48566406 126.46702148 408.71253906 127.04077148 408.94628906 C129.35327148 410.25878906 129.35327148 410.25878906 131.79077148 412.94628906 C134.05304948 415.48644613 134.05304948 415.48644613 136.57202148 415.33691406 C140.81479003 413.69224536 143.3479907 410.60378196 146.41577148 407.32128906 C147.6310754 406.03683192 148.85098324 404.75671185 150.07592773 403.48144531 C150.60968018 402.91176025 151.14343262 402.3420752 151.69335938 401.75512695 C154.94879817 398.8204918 156.91558004 398.25878906 161.35327148 398.25878906 C161.68327148 397.26878906 162.01327148 396.27878906 162.35327148 395.25878906 C164.27905273 394.16113281 164.27905273 394.16113281 166.66577148 393.19628906 C171.11679141 391.44483781 171.11679141 391.44483781 175.35327148 389.25878906 C175.68327148 388.26878906 176.01327148 387.27878906 176.35327148 386.25878906 C178.67306529 385.22776959 181.00757064 384.2294239 183.35327148 383.25878906 C185.10476313 381.67633631 185.10476313 381.67633631 186.35327148 380.25878906 C187.01327148 380.25878906 187.67327148 380.25878906 188.35327148 380.25878906 C188.68327148 379.26878906 189.01327148 378.27878906 189.35327148 377.25878906 C191.27905273 376.16113281 191.27905273 376.16113281 193.66577148 375.19628906 C198.11679141 373.44483781 198.11679141 373.44483781 202.35327148 371.25878906 C202.68327148 370.26878906 203.01327148 369.27878906 203.35327148 368.25878906 C205.67306529 367.22776959 208.00757064 366.2294239 210.35327148 365.25878906 C212.10476313 363.67633631 212.10476313 363.67633631 213.35327148 362.25878906 C214.01327148 362.25878906 214.67327148 362.25878906 215.35327148 362.25878906 C215.68327148 361.26878906 216.01327148 360.27878906 216.35327148 359.25878906 C218.27905273 358.16113281 218.27905273 358.16113281 220.66577148 357.19628906 C225.11679141 355.44483781 225.11679141 355.44483781 229.35327148 353.25878906 C229.68327148 352.26878906 230.01327148 351.27878906 230.35327148 350.25878906 C231.95483398 349.30175781 231.95483398 349.30175781 233.97827148 348.44628906 C237.06696635 347.01480838 239.40623842 345.49527173 241.91577148 343.19628906 C245.20025958 340.21925305 248.2142676 338.82067732 252.35327148 337.25878906 C254.65557914 336.3604789 254.65557914 336.3604789 256.35327148 335.25878906 C256.68327148 334.26878906 257.01327148 333.27878906 257.35327148 332.25878906 C258.95483398 331.30175781 258.95483398 331.30175781 260.97827148 330.44628906 C264.12633377 328.9985171 266.4030095 327.45299997 268.91577148 325.07128906 C272.32689125 321.95097904 274.78133153 321.44539886 279.35327148 321.25878906 C279.35327148 320.59878906 279.35327148 319.93878906 279.35327148 319.25878906 C280.52889648 318.74316406 281.70452148 318.22753906 282.91577148 317.69628906 C287.64950826 315.34614766 290.7617202 312.05430499 294.35327148 308.25878906 C298.08498292 304.90024877 301.69847438 303.12070791 306.35327148 301.25878906 C308.65557914 300.3604789 308.65557914 300.3604789 310.35327148 299.25878906 C310.68327148 298.26878906 311.01327148 297.27878906 311.35327148 296.25878906 C314.33786278 294.30336718 315.61741939 294.25878906 319.35327148 294.25878906 C319.68327148 293.26878906 320.01327148 292.27878906 320.35327148 291.25878906 C322.28288076 290.59340655 324.21343245 289.93054306 326.15014648 289.28613281 C329.44160725 287.75128497 331.51912372 285.36784341 333.90795898 282.68457031 C335.35327148 281.25878906 335.35327148 281.25878906 337.35327148 281.25878906 C337.68327148 280.26878906 338.01327148 279.27878906 338.35327148 278.25878906 C341.33786278 276.30336718 342.61741939 276.25878906 346.35327148 276.25878906 C346.69358398 275.39253906 346.69358398 275.39253906 347.04077148 274.50878906 C348.76362981 271.55531765 350.47629402 270.11284121 353.35327148 268.25878906 C357.16577148 267.50878906 357.16577148 267.50878906 360.35327148 267.25878906 C360.68327148 266.26878906 361.01327148 265.27878906 361.35327148 264.25878906 C363.6658116 263.21160109 366.00178628 262.21532542 368.35327148 261.25878906 C369.69958973 260.27634061 371.03768446 259.28202342 372.35327148 258.25878906 C373.01327148 258.25878906 373.67327148 258.25878906 374.35327148 258.25878906 C374.55952148 257.64003906 374.76577148 257.02128906 374.97827148 256.38378906 C376.35327148 254.25878906 376.35327148 254.25878906 379.04077148 253.44628906 C383.635674 251.79905986 386.05732461 248.74953185 389.35327148 245.25878906 C393.25923833 241.54812055 395.97856382 240.68033476 401.35327148 240.25878906 C401.68327148 239.26878906 402.01327148 238.27878906 402.35327148 237.25878906 C404.06030273 236.16113281 404.06030273 236.16113281 406.16577148 235.19628906 C407.19637695 234.71482422 407.19637695 234.71482422 408.24780273 234.22363281 C409.67347659 233.57030917 411.10893648 232.93800055 412.55249023 232.32519531 C414.69646175 231.32114363 414.69646175 231.32114363 415.35327148 228.25878906 C417.53295898 226.90722656 417.53295898 226.90722656 420.22827148 225.63378906 C421.11256836 225.20839844 421.99686523 224.78300781 422.90795898 224.34472656 C425.35327148 223.25878906 425.35327148 223.25878906 428.35327148 222.25878906 C428.68327148 221.26878906 429.01327148 220.27878906 429.35327148 219.25878906 C431.06030273 218.16113281 431.06030273 218.16113281 433.16577148 217.19628906 C434.19637695 216.71482422 434.19637695 216.71482422 435.24780273 216.22363281 C436.67347659 215.57030917 438.10893648 214.93800055 439.55249023 214.32519531 C441.69646175 213.32114363 441.69646175 213.32114363 442.35327148 210.25878906 C444.27905273 209.16113281 444.27905273 209.16113281 446.66577148 208.19628906 C451.11679141 206.44483781 451.11679141 206.44483781 455.35327148 204.25878906 C455.68327148 203.26878906 456.01327148 202.27878906 456.35327148 201.25878906 C458.06030273 200.16113281 458.06030273 200.16113281 460.16577148 199.19628906 C461.19637695 198.71482422 461.19637695 198.71482422 462.24780273 198.22363281 C463.67347659 197.57030917 465.10893648 196.93800055 466.55249023 196.32519531 C468.69646175 195.32114363 468.69646175 195.32114363 469.35327148 192.25878906 C471.17358398 191.30175781 471.17358398 191.30175781 473.47827148 190.44628906 C477.62968696 188.73572167 480.4619111 186.65174426 483.73999023 183.62988281 C486.02909847 181.68441795 488.67365226 180.59859868 491.35327148 179.25878906 C492.52049734 178.28384403 493.66521912 177.2815627 494.79077148 176.25878906 C498.04742985 173.33853277 501.32711062 171.98428657 505.35327148 170.25878906 C507.20306038 168.80162495 508.92730212 167.24831134 510.66967773 165.66503906 C512.99735929 163.72080389 515.64710091 162.61187435 518.35327148 161.25878906 C519.52049734 160.28384403 520.66521912 159.2815627 521.79077148 158.25878906 C525.04742985 155.33853277 528.32711062 153.98428657 532.35327148 152.25878906 C534.20306038 150.80162495 535.92730212 149.24831134 537.66967773 147.66503906 C539.99735929 145.72080389 542.64710091 144.61187435 545.35327148 143.25878906 C546.51750114 142.23772453 547.66238072 141.1943256 548.79077148 140.13378906 C552.26732857 136.99867955 554.72435937 136.44772425 559.35327148 136.25878906 C559.68327148 135.26878906 560.01327148 134.27878906 560.35327148 133.25878906 C562.67306529 132.22776959 565.00757064 131.2294239 567.35327148 130.25878906 C569.10476313 128.67633631 569.10476313 128.67633631 570.35327148 127.25878906 C571.01327148 127.25878906 571.67327148 127.25878906 572.35327148 127.25878906 C572.68327148 126.26878906 573.01327148 125.27878906 573.35327148 124.25878906 C575.17358398 123.33691406 575.17358398 123.33691406 577.47827148 122.50878906 C581.9922309 120.66576895 584.72818681 118.26715858 587.94311523 114.64941406 C589.35327148 113.25878906 589.35327148 113.25878906 591.35327148 113.25878906 C591.35327148 112.59878906 591.35327148 111.93878906 591.35327148 111.25878906 C592.50827148 110.74316406 593.66327148 110.22753906 594.85327148 109.69628906 C598.25278533 108.03256939 600.7409798 106.11397207 603.47827148 103.50878906 C606.25947535 100.93095386 606.95294254 100.30883018 610.85327148 99.82128906 C611.67827148 99.96566406 612.50327148 100.11003906 613.35327148 100.25878906 C613.68327148 99.26878906 614.01327148 98.27878906 614.35327148 97.25878906 C615.95483398 96.30175781 615.95483398 96.30175781 617.97827148 95.44628906 C621.06696635 94.01480838 623.40623842 92.49527173 625.91577148 90.19628906 C629.20025958 87.21925305 632.2142676 85.82067732 636.35327148 84.25878906 C638.65557914 83.3604789 638.65557914 83.3604789 640.35327148 82.25878906 C640.68327148 81.26878906 641.01327148 80.27878906 641.35327148 79.25878906 C642.95483398 78.30175781 642.95483398 78.30175781 644.97827148 77.44628906 C648.06696635 76.01480838 650.40623842 74.49527173 652.91577148 72.19628906 C656.20025958 69.21925305 659.2142676 67.82067732 663.35327148 66.25878906 C665.65557914 65.3604789 665.65557914 65.3604789 667.35327148 64.25878906 C667.68327148 63.26878906 668.01327148 62.27878906 668.35327148 61.25878906 C669.95483398 60.30175781 669.95483398 60.30175781 671.97827148 59.44628906 C675.06696635 58.01480838 677.40623842 56.49527173 679.91577148 54.19628906 C683.20025958 51.21925305 686.2142676 49.82067732 690.35327148 48.25878906 C692.65557914 47.3604789 692.65557914 47.3604789 694.35327148 46.25878906 C694.68327148 45.26878906 695.01327148 44.27878906 695.35327148 43.25878906 C696.95483398 42.30175781 696.95483398 42.30175781 698.97827148 41.44628906 C702.12633377 39.9985171 704.4030095 38.45299997 706.91577148 36.07128906 C710.32689125 32.95097904 712.78133153 32.44539886 717.35327148 32.25878906 C717.68327148 31.26878906 718.01327148 30.27878906 718.35327148 29.25878906 C720.06339015 28.50239042 721.7774971 27.7526655 723.51733398 27.06738281 C727.33117655 25.38766917 730.0675705 22.54449005 732.97827148 19.63378906 C736.46199637 16.15006417 738.68070577 14.90878841 743.54077148 14.69628906 C749.17175144 14.77854773 751.89440975 16.51848847 755.89233398 20.33691406 C758.69031904 24.01768584 758.4787896 27.84624456 758.48092198 32.34753126 C758.48393795 33.60661252 758.48695392 34.86569379 758.49006128 36.16292903 C758.48836223 37.56561225 758.48657149 38.96829536 758.48469925 40.37097836 C758.48634852 41.86296638 758.48843463 43.35495398 758.49091935 44.84694085 C758.49650042 48.97089156 758.49581096 53.09482157 758.49414176 57.21877486 C758.49341242 61.69623137 758.49842947 66.17368197 758.50271678 70.65113598 C758.51030818 79.54226831 758.51249042 88.43339463 758.51304584 97.32452986 C758.51395833 107.9696151 758.52062241 118.61469476 758.52739266 129.2597776 C758.54346558 154.98906106 758.54935706 180.71834393 758.55414141 206.4476315 C758.5564757 218.61257882 758.56007813 230.77752566 758.56383679 242.94247262 C758.5766724 284.56279805 758.5873924 326.18312322 758.59083939 367.80345058 C758.59106102 370.41691152 758.5912828 373.03037246 758.59150474 375.6438334 C758.59172538 378.26369188 758.59194586 380.88355037 758.59216619 383.50340885 C758.59260875 388.75951541 758.59305586 394.01562196 758.59350586 399.27172852 C758.59361525 400.57494085 758.59372464 401.87815318 758.59383735 403.22085679 C758.59747 445.50126323 758.61339783 487.78165255 758.63669622 530.06205242 C758.66126894 574.73645525 758.675011 619.41084828 758.6762073 664.08525807 C758.67637877 668.98526037 758.6765942 673.88526267 758.67684174 678.78526497 C758.6768975 679.99183222 758.67695327 681.19839948 758.67701073 682.44152937 C758.6781633 701.89243898 758.68920261 721.34333107 758.70372879 740.79423476 C758.71806513 760.32801699 758.72134699 779.86177666 758.71328881 799.3955627 C758.70881926 811.0122728 758.7127459 822.62891028 758.72852732 834.2456109 C758.73823406 841.99522257 758.73714055 849.74478303 758.72709109 857.49439417 C758.72166783 861.91648858 758.72108848 866.33844297 758.73359981 870.76052611 C758.74487466 874.77889167 758.74248567 878.79700225 758.72893274 882.81535865 C758.7264857 884.26434723 758.72912827 885.71335505 758.73732921 887.16232249 C758.74770227 889.1230898 758.73789415 891.08393312 758.72701764 893.0446977 C758.72726184 894.13239152 758.72750605 895.22008534 758.72775765 896.34073957 C758.00860165 901.9445055 754.5762891 905.70761516 750.35327148 909.25878906 C746.23195415 911.12504597 743.47636989 911.59632149 739.22827148 910.19628906 C735.4629905 908.56610994 733.21481649 906.19187269 730.35327148 903.25878906 C728.37187284 902.14628245 726.3485019 901.19405784 724.29077148 900.23144531 C721.64914582 898.90530662 719.50458888 897.27564912 717.35327148 895.25878906 C717.35327148 894.59878906 717.35327148 893.93878906 717.35327148 893.25878906 C716.7615918 893.08863281 716.16991211 892.91847656 715.56030273 892.74316406 C710.76396329 891.27218231 706.98609116 889.89160874 703.35327148 886.25878906 C703.35327148 885.59878906 703.35327148 884.93878906 703.35327148 884.25878906 C702.32202148 884.03191406 701.29077148 883.80503906 700.22827148 883.57128906 C695.9855004 882.37017871 693.49423488 880.3231436 690.35327148 877.25878906 C690.35327148 876.59878906 690.35327148 875.93878906 690.35327148 875.25878906 C689.7615918 875.08863281 689.16991211 874.91847656 688.56030273 874.74316406 C683.76396329 873.27218231 679.98609116 871.89160874 676.35327148 868.25878906 C676.35327148 867.59878906 676.35327148 866.93878906 676.35327148 866.25878906 C675.32202148 866.03191406 674.29077148 865.80503906 673.22827148 865.57128906 C668.9855004 864.37017871 666.49423488 862.3231436 663.35327148 859.25878906 C663.35327148 858.59878906 663.35327148 857.93878906 663.35327148 857.25878906 C662.7615918 857.08863281 662.16991211 856.91847656 661.56030273 856.74316406 C656.76396329 855.27218231 652.98609116 853.89160874 649.35327148 850.25878906 C649.35327148 849.59878906 649.35327148 848.93878906 649.35327148 848.25878906 C648.32202148 848.03191406 647.29077148 847.80503906 646.22827148 847.57128906 C641.9855004 846.37017871 639.49423488 844.3231436 636.35327148 841.25878906 C636.35327148 840.59878906 636.35327148 839.93878906 636.35327148 839.25878906 C635.79639648 839.08863281 635.23952148 838.91847656 634.66577148 838.74316406 C624.51203467 835.51866656 616.56212988 831.29943881 609.35327148 823.25878906 C609.35327148 822.59878906 609.35327148 821.93878906 609.35327148 821.25878906 C608.79639648 821.08863281 608.23952148 820.91847656 607.66577148 820.74316406 C599.6870125 818.20936898 593.3588297 815.35288078 587.14233398 809.70410156 C584.69127747 807.7239904 582.03898478 806.51493365 579.20092773 805.18066406 C575.24806752 803.20841245 572.66630888 800.66244254 569.97827148 797.19628906 C567.4895757 794.41131997 565.82690396 793.31421581 562.38061523 792.03222656 C556.31333297 789.71754084 550.05292383 786.80178633 545.35327148 782.25878906 C545.35327148 781.59878906 545.35327148 780.93878906 545.35327148 780.25878906 C544.36327148 780.19691406 544.36327148 780.19691406 543.35327148 780.13378906 C539.0266136 778.87184718 535.63490359 776.32870297 532.35327148 773.25878906 C532.35327148 772.59878906 532.35327148 771.93878906 532.35327148 771.25878906 C531.15702148 771.03191406 529.96077148 770.80503906 528.72827148 770.57128906 C524.16748844 769.44326621 521.65999479 767.56551236 518.35327148 764.25878906 C518.35327148 763.59878906 518.35327148 762.93878906 518.35327148 762.25878906 C517.26014648 761.99066406 516.16702148 761.72253906 515.04077148 761.44628906 C511.58888468 760.3346645 510.599225 759.8416356 508.35327148 757.25878906 C507.36327148 756.92878906 506.37327148 756.59878906 505.35327148 756.25878906 C505.35327148 755.26878906 505.35327148 754.27878906 505.35327148 753.25878906 C504.15702148 753.03191406 502.96077148 752.80503906 501.72827148 752.57128906 C497.16748844 751.44326621 494.65999479 749.56551236 491.35327148 746.25878906 C491.35327148 745.59878906 491.35327148 744.93878906 491.35327148 744.25878906 C490.26014648 743.97003906 489.16702148 743.68128906 488.04077148 743.38378906 C484.35327148 742.25878906 484.35327148 742.25878906 481.35327148 740.25878906 C481.35327148 739.59878906 481.35327148 738.93878906 481.35327148 738.25878906 C480.36327148 737.92878906 479.37327148 737.59878906 478.35327148 737.25878906 C478.35327148 736.59878906 478.35327148 735.93878906 478.35327148 735.25878906 C477.15702148 735.03191406 475.96077148 734.80503906 474.72827148 734.57128906 C470.16748844 733.44326621 467.65999479 731.56551236 464.35327148 728.25878906 C464.35327148 727.59878906 464.35327148 726.93878906 464.35327148 726.25878906 C463.34264648 726.03191406 462.33202148 725.80503906 461.29077148 725.57128906 C457.03844095 724.36747247 453.65712265 722.17065789 450.35327148 719.25878906 C450.02327148 718.59878906 449.69327148 717.93878906 449.35327148 717.25878906 C447.64223164 716.53488759 445.93003579 715.81342322 444.20874023 715.11425781 C441.54302792 713.88522413 439.48349993 712.25991275 437.35327148 710.25878906 C437.35327148 709.59878906 437.35327148 708.93878906 437.35327148 708.25878906 C436.40452148 708.03191406 435.45577148 707.80503906 434.47827148 707.57128906 C426.84288239 705.3720492 420.15701369 701.64797825 414.35327148 696.25878906 C413.56952148 695.53691406 412.78577148 694.81503906 411.97827148 694.07128906 C410.35327148 692.25878906 410.35327148 692.25878906 410.35327148 690.25878906 C409.72678711 690.07703125 409.10030273 689.89527344 408.45483398 689.70800781 C407.22893555 689.33095703 407.22893555 689.33095703 405.97827148 688.94628906 C404.76010742 688.58083984 404.76010742 688.58083984 403.51733398 688.20800781 C401.35327148 687.25878906 401.35327148 687.25878906 399.35327148 684.25878906 C398.36327148 683.92878906 397.37327148 683.59878906 396.35327148 683.25878906 C396.02327148 682.59878906 395.69327148 681.93878906 395.35327148 681.25878906 C393.64223164 680.53488759 391.93003579 679.81342322 390.20874023 679.11425781 C387.54302792 677.88522413 385.48349993 676.25991275 383.35327148 674.25878906 C383.35327148 673.59878906 383.35327148 672.93878906 383.35327148 672.25878906 C382.7615918 672.08863281 382.16991211 671.91847656 381.56030273 671.74316406 C376.73753859 670.26407816 373.05471151 668.84455908 369.35327148 665.25878906 C369.02327148 664.59878906 368.69327148 663.93878906 368.35327148 663.25878906 C366.64223164 662.53488759 364.93003579 661.81342322 363.20874023 661.11425781 C360.54302792 659.88522413 358.48349993 658.25991275 356.35327148 656.25878906 C356.35327148 655.59878906 356.35327148 654.93878906 356.35327148 654.25878906 C355.7615918 654.08863281 355.16991211 653.91847656 354.56030273 653.74316406 C349.73753859 652.26407816 346.05471151 650.84455908 342.35327148 647.25878906 C342.02327148 646.59878906 341.69327148 645.93878906 341.35327148 645.25878906 C339.80639648 644.64003906 339.80639648 644.64003906 338.22827148 644.00878906 C335.25895957 642.8210643 333.21155631 641.41432542 330.85327148 639.25878906 C327.63068368 636.32522259 324.39981425 634.90738056 320.35327148 633.25878906 C315.67530538 629.90285686 315.67530538 629.90285686 314.35327148 627.25878906 C312.75153564 626.54311985 311.14545222 625.83593192 309.52124023 625.17285156 C303.43485168 622.60669855 297.14931059 619.8949602 292.35327148 615.25878906 C292.35327148 614.59878906 292.35327148 613.93878906 292.35327148 613.25878906 C291.32202148 613.03191406 290.29077148 612.80503906 289.22827148 612.57128906 C284.9855004 611.37017871 282.49423488 609.3231436 279.35327148 606.25878906 C279.35327148 605.59878906 279.35327148 604.93878906 279.35327148 604.25878906 C278.7615918 604.08863281 278.16991211 603.91847656 277.56030273 603.74316406 C272.76396329 602.27218231 268.98609116 600.89160874 265.35327148 597.25878906 C265.35327148 596.59878906 265.35327148 595.93878906 265.35327148 595.25878906 C264.32202148 595.03191406 263.29077148 594.80503906 262.22827148 594.57128906 C257.9855004 593.37017871 255.49423488 591.3231436 252.35327148 588.25878906 C252.35327148 587.59878906 252.35327148 586.93878906 252.35327148 586.25878906 C251.7615918 586.08863281 251.16991211 585.91847656 250.56030273 585.74316406 C245.76396329 584.27218231 241.98609116 582.89160874 238.35327148 579.25878906 C238.35327148 578.59878906 238.35327148 577.93878906 238.35327148 577.25878906 C237.36327148 577.07316406 236.37327148 576.88753906 235.35327148 576.69628906 C231.05152375 575.49943183 228.53585489 572.92838842 225.33374023 569.93066406 C223.45167507 568.34185954 221.94099103 567.45966112 219.66577148 566.57128906 C216.27517169 565.22784386 214.00240906 563.74737285 211.35327148 561.25878906 C211.35327148 560.59878906 211.35327148 559.93878906 211.35327148 559.25878906 C210.23952148 558.97003906 209.12577148 558.68128906 207.97827148 558.38378906 C204.35327148 557.25878906 204.35327148 557.25878906 202.35327148 555.25878906 C200.49702148 554.60910156 200.49702148 554.60910156 198.60327148 553.94628906 C194.33290208 552.41893066 191.59724264 550.42166094 188.35327148 547.25878906 C188.35327148 546.59878906 188.35327148 545.93878906 188.35327148 545.25878906 C187.69327148 545.21753906 187.03327148 545.17628906 186.35327148 545.13378906 C180.88998671 543.540331 176.72862984 539.70291533 172.85327148 535.63378906 C170.14348295 533.05948995 167.6352714 531.79487882 164.28686523 530.23144531 C160.96127818 528.55857425 158.03547896 526.62320401 156.35327148 523.25878906 C154.68264648 522.54722656 154.68264648 522.54722656 152.97827148 521.82128906 C149.80228218 520.45232816 148.56314323 519.68964799 146.35327148 517.25878906 C145.36327148 516.92878906 144.37327148 516.59878906 143.35327148 516.25878906 C143.02327148 515.26878906 142.69327148 514.27878906 142.35327148 513.25878906 C141.36327148 512.59878906 140.37327148 511.93878906 139.35327148 511.25878906 C139.35327148 510.59878906 139.35327148 509.93878906 139.35327148 509.25878906 C132.85351721 510.1065831 129.00407829 513.46335644 124.51559997 518.10819864 C120.47659754 523.99317053 121.00702033 530.41418719 121.13967896 537.26483154 C121.13404491 538.8820034 121.12400501 540.49916484 121.10996521 542.11628556 C121.08413037 546.5409981 121.12023082 550.96333682 121.16670847 555.38779998 C121.20589062 560.16627219 121.18704664 564.94456033 121.17518616 569.72312927 C121.16237482 577.99714476 121.18559957 586.27042345 121.23303604 594.54430389 C121.30125305 606.51328324 121.31034963 618.48174827 121.30439018 630.45089415 C121.29594469 649.87967465 121.32912308 669.30814153 121.39135742 688.73681641 C121.45161138 707.59194995 121.50225266 726.44703892 121.53295898 745.30224609 C121.53486084 746.46414171 121.53676269 747.62603733 121.53872217 748.8231419 C121.55899342 761.50529717 121.57411536 774.18744816 121.58175468 786.86961746 C121.58242951 787.98384555 121.58310434 789.09807365 121.58379962 790.24606623 C121.58639239 794.69994232 121.5888748 799.15381827 121.5906366 803.60769477 C121.59584541 816.65030093 121.61733214 829.69263088 121.66830699 842.73514256 C121.699736 850.91185793 121.7180385 859.08852934 121.72597523 867.26530114 C121.73118384 871.98509973 121.74325726 876.70463904 121.77288628 881.42435265 C121.79995858 885.74325036 121.80878585 890.0617835 121.80306207 894.38075867 C121.80431054 895.94450774 121.81240455 897.50826915 121.82797123 899.07194123 C121.84818323 901.19576751 121.84372601 903.31817936 121.83314705 905.4420433 C121.83899982 907.21214252 121.83899982 907.21214252 121.84497082 909.01800132 C120.91912558 915.12024243 116.82492738 919.24576454 112.35327148 923.25878906 C109.37894412 924.25023152 107.42290623 924.38902926 104.31863403 924.39923096 C102.75825409 924.40779617 102.75825409 924.40779617 101.16635132 924.41653442 C100.02550079 924.41765228 98.88465027 924.41877014 97.70922852 924.41992188 C95.90645447 924.42736923 95.90645447 924.42736923 94.06726074 924.43496704 C90.76967093 924.44707557 87.47214454 924.45453366 84.17454004 924.4589777 C82.11394509 924.46190999 80.05335568 924.46601508 77.99276352 924.47048187 C71.54441896 924.48415325 65.09608709 924.49382191 58.64772904 924.49768376 C51.20614251 924.50216509 43.76473962 924.51971777 36.32320893 924.54868436 C30.56939859 924.57030344 24.81563991 924.58038815 19.06178939 924.58172488 C15.62596124 924.58277267 12.19030578 924.58867479 8.75452042 924.60654449 C4.92165453 924.62609205 1.08901808 924.62173529 -2.74389648 924.61523438 C-4.44909958 924.62905655 -4.44909958 924.62905655 -6.18875122 924.64315796 C-7.23464417 924.63758881 -8.28053711 924.63201965 -9.35812378 924.62628174 C-10.264037 924.6277483 -11.16995022 924.62921486 -12.10331535 924.63072586 C-16.92096008 923.92621612 -20.64510131 920.98494697 -23.64672852 917.25878906 C-25.48001164 912.43435978 -25.95245921 907.79467897 -26.20532227 902.68847656 C-26.48764875 900.16684075 -26.48764875 900.16684075 -28.15092754 898.12212467 C-30.0952034 894.40029644 -30.06025181 891.1124315 -30.02095032 887.01573181 C-30.02492472 886.18940437 -30.02889913 885.36307694 -30.03299397 884.51170927 C-30.04261285 881.74485408 -30.0308014 878.97851072 -30.01904297 876.21166992 C-30.02147105 874.22729807 -30.02519052 872.24292743 -30.03010559 870.25856018 C-30.03951535 864.87026451 -30.03008868 859.48215046 -30.01677346 854.09386897 C-30.00546348 848.45829536 -30.00956608 842.82273075 -30.01152039 837.18714905 C-30.01240343 827.72393829 -30.00132014 818.26079916 -29.98291016 808.79760742 C-29.96173629 797.85090767 -29.9582339 786.90431281 -29.96447212 775.95759672 C-29.97016299 765.43317397 -29.96452376 754.90878822 -29.95329857 744.3843708 C-29.94864954 739.90239339 -29.94778004 735.42043857 -29.94988441 730.9384594 C-29.95176544 725.6632106 -29.94367766 720.38806886 -29.92782402 715.11284447 C-29.92357486 713.17461846 -29.92273485 711.2363816 -29.92551422 709.29815292 C-29.92872758 706.65693796 -29.91967561 704.01604456 -29.90742493 701.37486267 C-29.91120425 700.60395308 -29.91498357 699.83304349 -29.91887742 699.038773 C-29.88805379 695.29414996 -29.74085943 692.43657062 -27.64672852 689.25878906 C-26.98672852 689.25878906 -26.32672852 689.25878906 -25.64672852 689.25878906 C-25.70726197 672.655895 -25.784761 656.05318024 -25.88244343 639.45046711 C-25.92740405 631.74148742 -25.96681806 624.03255396 -25.99316406 616.32348633 C-26.01614204 609.60405341 -26.0495377 602.88476673 -26.09543008 596.1654498 C-26.11936518 592.60778363 -26.138092 589.05026232 -26.14434242 585.49251747 C-26.1515162 581.52032206 -26.18194881 577.5484897 -26.21435547 573.57641602 C-26.21292038 572.39749786 -26.21148529 571.21857971 -26.21000671 570.00393677 C-26.22881393 568.37810921 -26.22881393 568.37810921 -26.2480011 566.71943665 C-26.25491455 565.31047607 -26.25491455 565.31047607 -26.26196766 563.87305164 C-26.45267907 561.19200035 -26.45267907 561.19200035 -28.14735544 559.16511846 C-30.23989845 555.10901038 -30.05970703 551.64394158 -30.02145863 547.14325619 C-30.02551935 546.21852169 -30.02958008 545.2937872 -30.03376386 544.34103045 C-30.04375331 541.22524357 -30.03225731 538.10990254 -30.02095032 534.99412537 C-30.02368939 532.74464275 -30.02774016 530.4951614 -30.03299397 528.24568325 C-30.04361185 522.05079481 -30.0354317 515.85604999 -30.02424347 509.66116774 C-30.01632817 503.67073789 -30.02246715 497.68032719 -30.02822005 491.68989855 C-30.04015541 478.67892168 -30.03505512 465.66799321 -30.02294177 452.657019 C-30.01241379 441.27166318 -30.00786523 429.88632386 -30.00923729 418.50096321 C-30.00932132 417.74632841 -30.00940535 416.99169362 -30.00949193 416.2141911 C-30.00984416 413.15104635 -30.01022817 410.0879016 -30.0106575 407.02475686 C-30.01462419 378.2795964 -30.00189675 349.53446513 -29.98113094 320.78931302 C-29.96275909 295.23787124 -29.95694898 269.68645744 -29.96240234 244.13500977 C-29.96274878 242.49426496 -29.96309487 240.85352015 -29.96344063 239.21277534 C-29.96361163 238.40163108 -29.96378262 237.59048683 -29.9639588 236.75476244 C-29.96481231 232.67176901 -29.9656361 228.58877557 -29.9664278 224.50578213 C-29.96658488 223.70031067 -29.96674196 222.89483921 -29.9669038 222.06495952 C-29.97089155 200.72822221 -29.96542144 179.39148761 -29.95691651 158.05475193 C-29.95600945 155.75961455 -29.9551038 153.46447717 -29.95420128 151.16933979 C-29.95360017 149.64674057 -29.95299155 148.12414134 -29.95237537 146.60154212 C-29.94814989 135.97594851 -29.94757745 125.35036019 -29.94948087 114.724766 C-29.95192106 101.03406274 -29.94787437 87.34338786 -29.93227086 73.65269237 C-29.92491713 67.04775906 -29.92096571 60.44285677 -29.92551422 53.83791924 C-29.9295721 47.79871463 -29.92447827 41.75959147 -29.91188814 35.72039927 C-29.90894524 33.52870391 -29.90941481 31.33700094 -29.91353122 29.14530747 C-29.91859817 26.17959982 -29.9115037 23.21416891 -29.90120411 20.2484808 C-29.90560059 19.38604982 -29.90999708 18.52361885 -29.91452679 17.6350536 C-29.87680944 11.98152756 -29.01620284 9.11420589 -25.70922852 4.63378906 C-18.72839014 -0.77992233 -8.49875767 -0.03372972 0 0 Z " fill="#000000" transform="translate(175.646728515625,90.7412109375)"/>
</svg>
