<?xml version="1.0" encoding="UTF-8"?>
<svg version="1.1" xmlns="http://www.w3.org/2000/svg" width="1080" height="1080">
<path d="M0 0 C2.8766252 1.55817198 5.05769276 3.36010355 7 6 C7 6.66 7 7.32 7 8 C8.258125 8.268125 9.51625 8.53625 10.8125 8.8125 C14.07807943 9.63319922 15.89979195 10.26972954 18 13 C21.26647179 16.73311062 24.4590855 18.088036 29 20 C31.9375 22.0625 31.9375 22.0625 34 24 C34 24.66 34 25.32 34 26 C34.56589844 26.10957031 35.13179687 26.21914063 35.71484375 26.33203125 C36.81505859 26.56986328 36.81505859 26.56986328 37.9375 26.8125 C38.66839844 26.96332031 39.39929688 27.11414063 40.15234375 27.26953125 C40.76207031 27.51058594 41.37179688 27.75164063 42 28 C42.495 29.485 42.495 29.485 43 31 C44.33076989 31.34342449 45.66431979 31.67619874 47 32 C47.66 32.99 48.32 33.98 49 35 C50.62116486 35.76095493 52.24934756 36.51160832 53.9140625 37.171875 C56.28593313 38.11351652 58.60862678 39.14428234 60.9375 40.1875 C61.70964844 40.53167969 62.48179687 40.87585938 63.27734375 41.23046875 C63.84582031 41.48441406 64.41429687 41.73835938 65 42 C65 42.66 65 43.32 65 44 C65.763125 44.268125 66.52625 44.53625 67.3125 44.8125 C69.9572594 45.98111462 71.00934798 47.00934798 73 49 C73.763125 49.28875 74.52625 49.5775 75.3125 49.875 C80.31518447 51.96914699 84.40215347 55.98701733 88 60 C88 60.66 88 61.32 88 62 C88.56589844 62.10957031 89.13179688 62.21914062 89.71484375 62.33203125 C90.81505859 62.56986328 90.81505859 62.56986328 91.9375 62.8125 C92.66839844 62.96332031 93.39929688 63.11414063 94.15234375 63.26953125 C94.76207031 63.51058594 95.37179687 63.75164062 96 64 C96.33 64.99 96.66 65.98 97 67 C98.010625 67.04125 99.02125 67.0825 100.0625 67.125 C104.7519324 67.7662081 107.9439804 70.49811736 111 74 C111 74.66 111 75.32 111 76 C112.0725 76.0825 113.145 76.165 114.25 76.25 C118.49949856 77.09989971 119.24608227 77.81578262 122 81 C123.81450612 82.57310841 125.66074954 84.10288934 127.51171875 85.6328125 C129 87 129 87 130 89 C131.03125 89.4125 132.0625 89.825 133.125 90.25 C136.09431192 91.43772477 138.14171518 92.84446365 140.5 95 C143.78113955 97.99097075 146.84559459 99.47389189 151 101 C151 101.66 151 102.32 151 103 C152.010625 103.04125 153.02125 103.0825 154.0625 103.125 C158.7519324 103.7662081 161.9439804 106.49811736 165 110 C165 110.66 165 111.32 165 112 C166.11375 112.0825 167.2275 112.165 168.375 112.25 C169.57125 112.4975 170.7675 112.745 172 113 C173.1875 115 173.1875 115 174 117 C175.94603274 117.59070014 175.94603274 117.59070014 178 118 C179 119 180 120 181 121 C181.763125 121.28875 182.52625 121.5775 183.3125 121.875 C186.90055696 123.37697733 189.15007558 125.34890752 192 128 C192 128.66 192 129.32 192 130 C192.56589844 130.10957031 193.13179687 130.21914062 193.71484375 130.33203125 C194.44832031 130.49058594 195.18179688 130.64914063 195.9375 130.8125 C197.03384766 131.03873047 197.03384766 131.03873047 198.15234375 131.26953125 C198.76207031 131.51058594 199.37179687 131.75164062 200 132 C200.33 132.99 200.66 133.98 201 135 C202.32796291 135.35412344 203.66216607 135.68521554 205 136 C206 137 207 138 208 139 C208.7425 139.268125 209.485 139.53625 210.25 139.8125 C214.07335882 141.46349585 217.14414179 143.97130887 220 147 C220 147.66 220 148.32 220 149 C220.58265625 149.29132813 221.1653125 149.58265625 221.765625 149.8828125 C227.75 152.875 227.75 152.875 229.859375 153.94140625 C231.23251677 154.62045993 232.61746369 155.2764227 234.015625 155.90234375 C238.77652633 158.0859855 242.19570373 160.83987216 246.03515625 164.3828125 C248.83711727 166.6889991 251.59532889 167.79417898 255 169 C255 169.66 255 170.32 255 171 C256.010625 171.04125 257.02125 171.0825 258.0625 171.125 C263.97753542 171.96146966 267.54447316 176.43250956 271.4375 180.625 C274.63870956 183.59197471 278.03939278 185.24082211 282 187 C282 187.66 282 188.32 282 189 C282.804375 189.28875 283.60875 189.5775 284.4375 189.875 C287 191 287 191 288 193 C289.99541868 193.68025637 291.99617991 194.34490497 294 195 C295.67739862 195.98189187 297.34467377 196.98133771 299 198 C299.825 198.309375 300.65 198.61875 301.5 198.9375 C305.10510663 200.46967032 307.85160352 202.75590381 310.5 205.625 C312.46328227 207.42467542 314.52641985 208.02207296 317 209 C322.33333333 212.30666667 322.33333333 212.30666667 324.5625 214.625 C325.98770621 216.16751319 325.98770621 216.16751319 328.3125 216.875 C331.90055696 218.37697733 334.15007558 220.34890752 337 223 C337 223.66 337 224.32 337 225 C338.546875 225.37125 338.546875 225.37125 340.125 225.75 C345.24082536 227.21314681 349.02259798 229.53389696 352 234 C352.9075 234.28875 353.815 234.5775 354.75 234.875 C358.81099981 236.2807307 360.89840842 238.04610326 364 241 C364 241.66 364 242.32 364 243 C365.258125 243.268125 366.51625 243.53625 367.8125 243.8125 C371.07807943 244.63319922 372.89979195 245.26972954 375 248 C377.26113872 250.57301992 378.58169165 251.8635951 381.875 252.9375 C385.87253997 254.29666359 387.95009159 256.09532533 391 259 C391 259.66 391 260.32 391 261 C392.258125 261.268125 393.51625 261.53625 394.8125 261.8125 C398.07807943 262.63319922 399.89979195 263.26972954 402 266 C405.26647179 269.73311062 408.4590855 271.088036 413 273 C415.9375 275.0625 415.9375 275.0625 418 277 C418 277.66 418 278.32 418 279 C418.56589844 279.10957031 419.13179687 279.21914063 419.71484375 279.33203125 C420.44832031 279.49058594 421.18179687 279.64914062 421.9375 279.8125 C423.03384766 280.03873047 423.03384766 280.03873047 424.15234375 280.26953125 C424.76207031 280.51058594 425.37179687 280.75164062 426 281 C426.33 281.99 426.66 282.98 427 284 C428.33076989 284.34342449 429.66431979 284.67619874 431 285 C431.66 285.99 432.32 286.98 433 288 C434.71837873 288.74571152 436.43895398 289.48776413 438.1796875 290.1796875 C440.84334578 291.38004853 442.88139649 293.0097967 445 295 C445 295.66 445 296.32 445 297 C445.56589844 297.10957031 446.13179687 297.21914063 446.71484375 297.33203125 C447.44832031 297.49058594 448.18179687 297.64914062 448.9375 297.8125 C450.03384766 298.03873047 450.03384766 298.03873047 451.15234375 298.26953125 C451.76207031 298.51058594 452.37179687 298.75164062 453 299 C453.33 299.99 453.66 300.98 454 302 C455.010625 302.04125 456.02125 302.0825 457.0625 302.125 C461.90653482 302.80159596 464.62781796 305.66955289 468 309 C469.2065625 310.11375 469.2065625 310.11375 470.4375 311.25 C472 313 472 313 472 315 C472.56589844 315.10957031 473.13179687 315.21914063 473.71484375 315.33203125 C474.44832031 315.49058594 475.18179687 315.64914062 475.9375 315.8125 C477.03384766 316.03873047 477.03384766 316.03873047 478.15234375 316.26953125 C478.76207031 316.51058594 479.37179687 316.75164062 480 317 C480.33 317.99 480.66 318.98 481 320 C482.65204456 320.70211894 484.31923769 321.36971413 486 322 C486.33 322.66 486.66 323.32 487 324 C489.31979381 325.03101947 491.65429915 326.02936517 494 327 C494.99 327.66 495.98 328.32 497 329 C498.03125 329.309375 499.0625 329.61875 500.125 329.9375 C501.07375 330.288125 502.0225 330.63875 503 331 C503.33 331.99 503.66 332.98 504 334 C505.32796291 334.35412344 506.66216607 334.68521554 508 335 C509 336 510 337 511 338 C511.763125 338.28875 512.52625 338.5775 513.3125 338.875 C516.90055696 340.37697733 519.15007558 342.34890752 522 345 C522 345.66 522 346.32 522 347 C522.84884766 347.16435547 522.84884766 347.16435547 523.71484375 347.33203125 C524.81505859 347.56986328 524.81505859 347.56986328 525.9375 347.8125 C526.66839844 347.96332031 527.39929688 348.11414063 528.15234375 348.26953125 C528.76207031 348.51058594 529.37179687 348.75164062 530 349 C530.33 349.99 530.66 350.98 531 352 C532.32796291 352.35412344 533.66216607 352.68521554 535 353 C536 354 537 355 538 356 C538.763125 356.28875 539.52625 356.5775 540.3125 356.875 C543.90055696 358.37697733 546.15007558 360.34890752 549 363 C549 363.66 549 364.32 549 365 C549.84884766 365.16435547 549.84884766 365.16435547 550.71484375 365.33203125 C551.81505859 365.56986328 551.81505859 365.56986328 552.9375 365.8125 C553.66839844 365.96332031 554.39929688 366.11414063 555.15234375 366.26953125 C555.76207031 366.51058594 556.37179687 366.75164062 557 367 C557.33 367.99 557.66 368.98 558 370 C559.33251796 370.33657804 560.66594456 370.66956852 562 371 C563.45703125 372.5234375 563.45703125 372.5234375 564.8125 374.375 C567.81211876 378.05533024 570.49613782 379.34858387 575 381 C576.82149035 381.87740897 578.63375 382.77417666 580.4375 383.6875 C581.30246094 384.12449219 582.16742187 384.56148438 583.05859375 385.01171875 C584.01958984 385.50091797 584.01958984 385.50091797 585 386 C585 386.66 585 387.32 585 388 C586.65 388.66 588.3 389.32 590 390 C590 390.66 590 391.32 590 392 C590.99 392.185625 591.98 392.37125 593 392.5625 C597.29371759 393.75712304 599.80580439 396.31794162 603 399.3125 C605.81120126 401.68445106 608.55134331 402.77860076 612 404 C612 404.66 612 405.32 612 406 C612.804375 406.28875 613.60875 406.5775 614.4375 406.875 C617 408 617 408 618 410 C618.845625 410.226875 619.69125 410.45375 620.5625 410.6875 C623.9211571 411.96989635 625.36016681 413.05070895 627.9375 415.4375 C631.45366099 418.6894408 634.50231271 420.40706908 639 422 C639 422.66 639 423.32 639 424 C639.804375 424.28875 640.60875 424.5775 641.4375 424.875 C644 426 644 426 645 428 C645.845625 428.226875 646.69125 428.45375 647.5625 428.6875 C650.9211571 429.96989635 652.36016681 431.05070895 654.9375 433.4375 C658.45366099 436.6894408 661.50231271 438.40706908 666 440 C666 440.66 666 441.32 666 442 C666.804375 442.28875 667.60875 442.5775 668.4375 442.875 C671 444 671 444 672 446 C672.845625 446.226875 673.69125 446.45375 674.5625 446.6875 C677.9211571 447.96989635 679.36016681 449.05070895 681.9375 451.4375 C685.41987863 454.62968042 688.5271623 456.35211243 693 458 C694.58933139 458.65223817 696.17253107 459.31957318 697.75 460 C698.48734375 460.309375 699.2246875 460.61875 699.984375 460.9375 C702.10329263 462.05444883 703.38773974 463.24655311 705 465 C707.42548876 467.1063455 709.42829452 468.78011328 712.4375 469.9375 C717.16277757 471.89676143 720.43599026 475.16252465 723.4375 479.1875 C726.47717936 482.52373344 728.70893946 482.92723486 733 484 C733.33 484.99 733.66 485.98 734 487 C735.93330603 488.09166275 735.93330603 488.09166275 738 489 C738.66 489.66 739.32 490.32 740 491 C741.0725 491.433125 742.145 491.86625 743.25 492.3125 C748.3840932 494.44282913 752.14204412 497.84563653 755.625 502.125 C757.79075368 504.99273472 757.79075368 504.99273472 760.25 506.625 C762.83612746 508.65695729 762.84026243 510.92429889 763.30859375 514.078125 C763.64246473 519.70334516 762.47748109 522.84537701 758.84765625 527.14453125 C754.49383743 531.51675945 749.89762387 535.03412538 744 537 C741.78228936 537.85790183 741.78228936 537.85790183 740 539 C739.67 539.99 739.34 540.98 739 542 C736 544 736 544 733.625 544.3125 C730.01831131 545.25710894 728.50631793 547.30088838 726 550 C723.53993685 552.22943223 722.59373865 552.95951782 719.25 553.1875 C718.13625 553.0946875 718.13625 553.0946875 717 553 C716.34 554.32 715.68 555.64 715 557 C714.34 557 713.68 557 713 557 C712.835 557.598125 712.67 558.19625 712.5 558.8125 C710.45735631 561.79135539 708.24210159 562.23684325 704.875 563.2890625 C702.79553879 563.9308084 702.79553879 563.9308084 701 566 C698.68020619 567.03101947 696.34570085 568.02936517 694 569 C691.69769234 569.89831016 691.69769234 569.89831016 690 571 C689.67 571.99 689.34 572.98 689 574 C687.02720786 574.72335712 685.05231709 575.44207099 683.0625 576.1171875 C680.01496673 577.42162409 678.19283552 579.56351609 676 582 C673.15271657 584.40239539 670.47857892 585.6955329 667 587 C664.78228936 587.85790183 664.78228936 587.85790183 663 589 C662.67 589.99 662.34 590.98 662 592 C660.03926371 592.66465637 658.07846267 593.32912294 656.1171875 593.9921875 C653.07116096 595.44214109 651.54471003 597.59783716 649.5 600.21484375 C646.38488816 603.92215133 642.94000447 606.79361655 638.0625 607.3125 C637.0415625 607.1578125 637.0415625 607.1578125 636 607 C635.7525 607.5775 635.505 608.155 635.25 608.75 C632.44090325 613.80637415 629.17042721 615.49592375 623.88671875 617.2734375 C621.83710315 617.95965548 621.83710315 617.95965548 619.8125 619.6875 C617.45218888 621.39669081 615.84554514 621.23712876 613 621 C612.773125 621.5775 612.54625 622.155 612.3125 622.75 C610.06170082 626.60851288 607.23927395 628.61272689 603 629.9375 C599.315452 631.24244408 597.63463395 633.15736863 595 636 C592.53993685 638.22943223 591.59373865 638.95951782 588.25 639.1875 C587.13625 639.0946875 587.13625 639.0946875 586 639 C585.773125 639.5775 585.54625 640.155 585.3125 640.75 C582.389851 645.76025544 578.28646695 647.27615208 573 649 C571.29078411 650.5412312 571.29078411 650.5412312 570 652 C569.34 652 568.68 652 568 652 C567.814375 652.639375 567.62875 653.27875 567.4375 653.9375 C566.963125 654.618125 566.48875 655.29875 566 656 C563.66666667 656.33333333 561.33333333 656.66666667 559 657 C557.79996657 658.81601365 557.79996657 658.81601365 557 661 C553.53882827 664.26888441 550.47029029 665.54229664 546 667 C544.29078411 668.5412312 544.29078411 668.5412312 543 670 C542.34 670 541.68 670 541 670 C540.814375 670.639375 540.62875 671.27875 540.4375 671.9375 C539.963125 672.618125 539.48875 673.29875 539 674 C536.66666667 674.33333333 534.33333333 674.66666667 532 675 C530.79996657 676.81601365 530.79996657 676.81601365 530 679 C526.36800746 682.42445011 522.60665312 684.15733875 518 686 C515.73142854 686.84077872 515.73142854 686.84077872 514 688 C513.7525 688.639375 513.505 689.27875 513.25 689.9375 C511.44926429 692.90871392 509.10054218 693.28108057 505.875 694.2890625 C503.79553879 694.9308084 503.79553879 694.9308084 502 697 C501.030625 697.309375 500.06125 697.61875 499.0625 697.9375 C496.0771818 698.97322264 495.05089795 699.74401226 493 702 C492.34 702 491.68 702 491 702 C490.67 702.99 490.34 703.98 490 705 C487.01540871 706.95542188 485.73585209 707 482 707 C481.67 707.99 481.34 708.98 481 710 C479.29296875 711.71875 479.29296875 711.71875 477.1875 713.5 C476.50042969 714.0878125 475.81335938 714.675625 475.10546875 715.28125 C474.41066406 715.8484375 473.71585938 716.415625 473 717 C472.31035156 717.56332031 471.62070312 718.12664063 470.91015625 718.70703125 C468.48336028 720.3497091 466.86972447 720.23914371 464 720 C463.67 720.99 463.34 721.98 463 723 C460.01540871 724.95542188 458.73585209 725 455 725 C454.67 725.99 454.34 726.98 454 728 C450.14879971 731.53626568 445.97368466 734.34210511 441 736 C438.78228936 736.85790183 438.78228936 736.85790183 437 738 C436.67 738.99 436.34 739.98 436 741 C434.02720786 741.72335712 432.05231709 742.44207099 430.0625 743.1171875 C427.01496673 744.42162409 425.19283552 746.56351609 423 749 C420.15271657 751.40239539 417.47857892 752.6955329 414 754 C411.78228936 754.85790183 411.78228936 754.85790183 410 756 C409.67 756.99 409.34 757.98 409 759 C406 761 406 761 403.625 761.3125 C400.01831131 762.25710894 398.50631793 764.30088838 396 767 C393.53993685 769.22943223 392.59373865 769.95951782 389.25 770.1875 C388.5075 770.125625 387.765 770.06375 387 770 C386.34 771.32 385.68 772.64 385 774 C384.34 774 383.68 774 383 774 C382.814375 774.61875 382.62875 775.2375 382.4375 775.875 C381 778 381 778 377.6875 778.9375 C373.42634514 780.16529038 371.92780999 781.75567002 369 785 C366.53993685 787.22943223 365.59373865 787.95951782 362.25 788.1875 C361.5075 788.125625 360.765 788.06375 360 788 C359.34 789.32 358.68 790.64 358 792 C357.34 792 356.68 792 356 792 C355.814375 792.61875 355.62875 793.2375 355.4375 793.875 C354 796 354 796 350.6875 796.9375 C346.42634514 798.16529038 344.92780999 799.75567002 342 803 C339.53993685 805.22943223 338.59373865 805.95951782 335.25 806.1875 C334.5075 806.125625 333.765 806.06375 333 806 C332.690625 806.8353125 332.690625 806.8353125 332.375 807.6875 C330.43964602 810.94241351 328.05045791 812.78692269 325 815 C324.154375 815.165 323.30875 815.33 322.4375 815.5 C318.88641455 816.22842778 317.42325725 818.39033834 315 821 C312.53993685 823.22943223 311.59373865 823.95951782 308.25 824.1875 C307.5075 824.125625 306.765 824.06375 306 824 C305.62875 824.86625 305.62875 824.86625 305.25 825.75 C303.75897444 828.433846 302.39368591 830.05917359 300 832 C298.865625 832.309375 297.73125 832.61875 296.5625 832.9375 C292.40710858 834.17682727 290.8674175 835.82259141 288 839 C285.53993685 841.22943223 284.59373865 841.95951782 281.25 842.1875 C280.5075 842.125625 279.765 842.06375 279 842 C278.67 842.99 278.34 843.98 278 845 C276.02720786 845.72335712 274.05231709 846.44207099 272.0625 847.1171875 C269.01496673 848.42162409 267.19283552 850.56351609 265 853 C262.53993685 855.22943223 261.59373865 855.95951782 258.25 856.1875 C257.5075 856.125625 256.765 856.06375 256 856 C255.34 857.32 254.68 858.64 254 860 C253.34 860 252.68 860 252 860 C251.67 860.99 251.34 861.98 251 863 C249.02720786 863.72335712 247.05231709 864.44207099 245.0625 865.1171875 C242.01496673 866.42162409 240.19283552 868.56351609 238 871 C235.53993685 873.22943223 234.59373865 873.95951782 231.25 874.1875 C230.5075 874.125625 229.765 874.06375 229 874 C228.6596875 874.86625 228.6596875 874.86625 228.3125 875.75 C225.389851 880.76025544 221.28646695 882.27615208 216 884 C214.29078411 885.5412312 214.29078411 885.5412312 213 887 C212.34 887 211.68 887 211 887 C210.814375 887.639375 210.62875 888.27875 210.4375 888.9375 C209.963125 889.618125 209.48875 890.29875 209 891 C206.66666667 891.33333333 204.33333333 891.66666667 202 892 C200.79996657 893.81601365 200.79996657 893.81601365 200 896 C196.53882827 899.26888441 193.47029029 900.54229664 189 902 C187.29078411 903.5412312 187.29078411 903.5412312 186 905 C185.34 905 184.68 905 184 905 C183.814375 905.61875 183.62875 906.2375 183.4375 906.875 C182 909 182 909 178.6875 909.9375 C174.42634514 911.16529038 172.92780999 912.75567002 170 916 C167.15271657 918.40239539 164.47857892 919.6955329 161 921 C158.81601365 921.79996657 158.81601365 921.79996657 157 923 C156.731875 923.66 156.46375 924.32 156.1875 925 C155 927 155 927 151.6875 927.9375 C147.42634514 929.16529038 145.92780999 930.75567002 143 934 C140.15271657 936.40239539 137.47857892 937.6955329 134 939 C131.81601365 939.79996657 131.81601365 939.79996657 130 941 C129.731875 941.66 129.46375 942.32 129.1875 943 C128 945 128 945 124.6875 945.9375 C120.42634514 947.16529038 118.92780999 948.75567002 116 952 C113.53993685 954.22943223 112.59373865 954.95951782 109.25 955.1875 C108.5075 955.125625 107.765 955.06375 107 955 C106.67 955.99 106.34 956.98 106 958 C103.01540871 959.95542188 101.73585209 960 98 960 C97.67 960.99 97.34 961.98 97 963 C95.29296875 964.71875 95.29296875 964.71875 93.1875 966.5 C92.50042969 967.0878125 91.81335938 967.675625 91.10546875 968.28125 C90.41066406 968.8484375 89.71585937 969.415625 89 970 C88.31035156 970.56332031 87.62070312 971.12664063 86.91015625 971.70703125 C84.48336028 973.3497091 82.86972447 973.23914371 80 973 C79.67 973.99 79.34 974.98 79 976 C77.02720786 976.72335712 75.05231709 977.44207099 73.0625 978.1171875 C70.01496673 979.42162409 68.19283552 981.56351609 66 984 C63.15271657 986.40239539 60.47857892 987.6955329 57 989 C54.78228936 989.85790183 54.78228936 989.85790183 53 991 C52.67 991.99 52.34 992.98 52 994 C49 996 49 996 46.625 996.3125 C43.01831131 997.25710894 41.50631793 999.30088838 39 1002 C36.15271657 1004.40239539 33.47857892 1005.6955329 30 1007 C27.81601365 1007.79996657 27.81601365 1007.79996657 26 1009 C25.731875 1009.66 25.46375 1010.32 25.1875 1011 C24 1013 24 1013 20.6875 1013.9375 C16.42634514 1015.16529038 14.92780999 1016.75567002 12 1020 C9.53993685 1022.22943223 8.59373865 1022.95951782 5.25 1023.1875 C4.5075 1023.125625 3.765 1023.06375 3 1023 C2.34 1024.32 1.68 1025.64 1 1027 C0.34 1027 -0.32 1027 -1 1027 C-1.2475 1027.9590625 -1.2475 1027.9590625 -1.5 1028.9375 C-3 1031 -3 1031 -6.8125 1031.875 C-10.4227928 1032.12915419 -12.85455779 1031.95527489 -16 1030 C-19.64939598 1026.38161872 -21.90682919 1023.23759578 -22.12608917 1017.97183491 C-22.12660441 1016.71332185 -22.12711965 1015.45480878 -22.1276505 1014.15815896 C-22.12930128 1013.45369849 -22.13095206 1012.74923802 -22.13265286 1012.02343026 C-22.1369995 1009.64029104 -22.13416978 1007.25721295 -22.13142776 1004.87407207 C-22.13307638 1003.14990861 -22.13516217 1001.42574552 -22.13764787 999.70158306 C-22.14323752 994.92832029 -22.14253792 990.15507538 -22.14087028 985.38181038 C-22.14014176 980.20221156 -22.14515603 975.02261787 -22.1494453 969.84302121 C-22.15704162 959.55413177 -22.15921918 949.26524751 -22.15977435 938.97635556 C-22.16068637 926.65908015 -22.16734907 914.34180958 -22.17412117 902.02453624 C-22.18981779 872.95820834 -22.19587141 843.89188213 -22.2005282 814.82555098 C-22.20291013 800.04209194 -22.20661334 785.25863336 -22.2105653 770.47517466 C-22.2232303 723.0722368 -22.2340145 675.66929896 -22.23740576 628.26635943 C-22.237568 626.00016639 -22.23773356 623.73397334 -22.23790014 621.4677803 C-22.23823395 616.92277672 -22.23856443 612.37777315 -22.2388947 607.83276957 C-22.23928161 602.5114987 -22.23967121 597.19022783 -22.24006577 591.86895696 C-22.24017818 590.34595716 -22.2402896 588.82295736 -22.24040002 587.29995757 C-22.24395035 538.37424685 -22.25903214 489.44855081 -22.28233776 440.52284569 C-22.29907473 405.37253482 -22.31455246 370.22222671 -22.31907272 335.07191181 C-22.31916621 334.34934139 -22.3192597 333.62677097 -22.31935601 332.88230448 C-22.32137487 317.02164159 -22.32253107 301.16097875 -22.3228846 285.30031575 C-22.32302078 279.62534276 -22.32322977 273.95036977 -22.32347785 268.27539679 C-22.32353941 266.86355677 -22.32359773 265.45171675 -22.3236528 264.03987672 C-22.32457334 241.52507823 -22.33455021 219.01029504 -22.34911029 196.49550158 C-22.36411886 173.1939882 -22.36832363 149.89249869 -22.36001733 126.59097954 C-22.35554799 113.14818131 -22.35947358 99.70544582 -22.37525584 86.26265578 C-22.38496338 77.29451311 -22.38386827 68.32641468 -22.37381961 59.35827247 C-22.36839692 54.24101671 -22.36781525 49.12388195 -22.38032833 44.00663593 C-22.39160534 39.35631771 -22.38921161 34.70621978 -22.37566125 30.05590946 C-22.37321476 28.37927076 -22.37585488 26.70261544 -22.38405773 25.02599502 C-22.39443666 22.75635572 -22.3864238 20.48749913 -22.37374616 18.21788853 C-22.37399036 16.95917219 -22.37423456 15.70045585 -22.37448616 14.40359659 C-21.74780601 8.70788167 -19.35157618 4.6716424 -15 1 C-10.06042018 -0.64652661 -5.14249925 -0.72233559 0 0 Z " fill="#000000" transform="translate(208,29)"/>
</svg>
