<?xml version="1.0" encoding="UTF-8"?>
<svg version="1.1" xmlns="http://www.w3.org/2000/svg" width="1080" height="1080">
<path d="M0 0 C1.30806107 -0.00708481 2.61612213 -0.01416962 3.96382141 -0.02146912 C5.4168552 -0.01917518 6.86988867 -0.01666546 8.32292175 -0.01396179 C9.85055796 -0.01830822 11.37819198 -0.02349114 12.90582275 -0.02944946 C17.05883257 -0.04286049 21.2117515 -0.04341564 25.36477876 -0.04088616 C28.83140411 -0.03981754 32.298011 -0.04469721 35.7646324 -0.04949158 C43.94455796 -0.06059476 52.12443761 -0.0610201 60.30436707 -0.05497742 C68.7414324 -0.04894051 77.17833085 -0.06123954 85.61536771 -0.08254749 C92.85878494 -0.10016793 100.10214908 -0.10616401 107.34558696 -0.10290974 C111.67177056 -0.10109692 115.99783521 -0.10373269 120.3239994 -0.11762428 C124.3943731 -0.13020468 128.46448706 -0.1282566 132.5348568 -0.11521339 C134.02718061 -0.11284824 135.51952271 -0.11558014 137.01182556 -0.12383652 C139.0523747 -0.13431014 141.09299787 -0.12439726 143.13354492 -0.11352539 C144.84500057 -0.113777 144.84500057 -0.113777 146.59103107 -0.1140337 C152.07246591 0.53470856 156.31990563 2.96401854 159.75724792 7.26069641 C162.41965128 13.07044087 162.05258845 19.0037037 162.00724792 25.26069641 C162.0149823 26.32804016 162.02271667 27.39538391 162.03068542 28.49507141 C162.01559168 34.56275529 161.836638 39.6952152 158.70462608 45.0656023 C157.52356696 47.80213988 157.49985875 49.90302879 157.48982239 52.88220215 C157.48129242 54.02743347 157.47276245 55.17266479 157.463974 56.3526001 C157.46488037 57.60513077 157.46578674 58.85766144 157.46672058 60.14814758 C157.46073445 61.48387528 157.4539287 62.81959952 157.44636536 64.15531921 C157.42870157 67.78162257 157.42400968 71.40783151 157.42273378 75.03417373 C157.42131125 77.30235698 157.41703959 79.57051631 157.41173935 81.83869362 C157.39323417 89.75940598 157.38506889 97.68005104 157.38664246 105.6007843 C157.38784232 112.97052634 157.36677187 120.33997479 157.33515513 127.70964259 C157.308945 134.04613114 157.29827722 140.38252414 157.29955328 146.71906644 C157.30006175 150.4993311 157.29444338 154.27933511 157.27319717 158.05954552 C157.25373588 161.61949417 157.25374341 165.1789358 157.26823044 168.73890305 C157.27129627 170.65634384 157.25469522 172.5737851 157.23735046 174.4911499 C157.24573944 175.65048035 157.25412842 176.80981079 157.26277161 178.00427246 C157.26168207 179.00106616 157.26059254 179.99785986 157.25946999 181.02485943 C157.72673555 184.06234882 158.36554205 185.548827 159.75724792 188.19962174 C162.35018663 193.94085055 162.31033454 199.25494735 162.25502586 205.47372818 C162.26024043 206.68473686 162.265455 207.89574554 162.27082759 209.14345145 C162.28123421 212.49822971 162.27377734 215.85209815 162.25871542 219.20680082 C162.24674442 222.85882037 162.25804228 226.51078108 162.26635706 230.16280055 C162.27771932 236.56109881 162.27423217 242.95925508 162.26098633 249.35754776 C162.24134411 258.87178736 162.24461755 268.38592309 162.25248692 277.90017477 C162.26503678 293.90645094 162.25869457 309.91266819 162.24129868 325.91893768 C162.22407455 341.77045997 162.21425825 357.62195578 162.21463394 373.47348785 C162.21464923 374.45922248 162.21466452 375.44495711 162.21468028 376.46056248 C162.21476209 380.46183092 162.21489332 384.46309936 162.2150919 388.4643678 C162.21690425 426.00284736 162.19701065 463.54128656 162.16623257 501.07975211 C162.13897616 534.44606234 162.12651035 567.8123439 162.12785339 601.17866516 C162.12793422 603.32164428 162.12801494 605.46462339 162.12809555 607.60760251 C162.12813625 608.66704108 162.12817695 609.72647965 162.12821889 610.81802242 C162.12842047 616.15085899 162.12860164 621.48369556 162.12875938 626.81653214 C162.12879281 627.86857221 162.12882624 628.92061228 162.12886068 630.00453236 C162.12959061 657.87129807 162.12051834 685.73806017 162.10810626 713.60482287 C162.10766571 714.5957541 162.10722517 715.58668533 162.10677127 716.60764477 C162.10499478 720.59256418 162.103218 724.57748357 162.10138936 728.56240295 C162.09506481 742.43860032 162.09205025 756.31479487 162.09116638 770.19099358 C162.08997346 788.06790688 162.08200947 805.94479649 162.06230347 823.82169965 C162.05205682 833.28106461 162.04726027 842.74039481 162.05029583 852.19976505 C162.05176092 858.51118321 162.04598563 864.82256745 162.03420822 871.13397473 C162.0276874 874.73452437 162.0243576 878.33500096 162.02972941 881.93555418 C162.03542234 885.80742497 162.0257806 889.67916852 162.01451683 893.55102921 C162.01862747 894.67761546 162.02273811 895.80420172 162.02697331 896.96492696 C162.01869408 898.50921219 162.01869408 898.50921219 162.01024759 900.0846951 C162.00937309 901.41320321 162.00937309 901.41320321 162.00848093 902.76854987 C161.49627585 907.84945124 159.4530558 910.98031278 155.88224792 914.51069641 C154.86517761 915.53936829 154.86517761 915.53936829 153.82756042 916.58882141 C150.0729903 919.62081389 146.28617551 919.38725883 141.58406067 919.39440918 C140.31669571 919.39867416 139.04933075 919.40293915 137.74356079 919.40733337 C136.34138486 919.40698387 134.93920895 919.40652235 133.53703308 919.40596008 C132.05851151 919.40895267 130.57999071 919.41235543 129.10147095 919.4161377 C125.08696599 919.42497179 121.07248235 919.42731556 117.05796862 919.42795348 C114.54927251 919.42866432 112.04058182 919.43079928 109.53188705 919.4334507 C100.7782278 919.44270216 92.02458378 919.44678583 83.2709198 919.44599915 C75.11391345 919.4453984 66.95697324 919.4559501 58.79998362 919.47174281 C51.79434384 919.48482259 44.78872568 919.49018286 37.78307378 919.48954374 C33.60000939 919.48928888 29.41700379 919.49213341 25.23395157 919.50272179 C21.29904359 919.51241013 17.36425051 919.51247691 13.42933846 919.50520515 C11.98700225 919.50416023 10.54465887 919.50651675 9.10233498 919.51256561 C7.12970537 919.52030118 5.15703653 919.5144343 3.18440247 919.50793457 C2.08160257 919.50847934 0.97880268 919.50902411 -0.15741539 919.50958538 C-5.54863102 919.074685 -8.98179461 917.89448232 -12.87743425 914.10554045 C-17.85973923 908.20242036 -17.21172568 901.62084037 -17.12364006 894.2586441 C-17.1309467 892.7185444 -17.14131897 891.17845673 -17.15447062 889.63839585 C-17.18175454 885.39916328 -17.16540878 881.16104514 -17.14202495 876.92183054 C-17.12428546 872.31274861 -17.14708033 867.703839 -17.16472828 863.0947814 C-17.19003247 855.01449132 -17.1892298 846.93452849 -17.17139816 838.85422325 C-17.14495422 826.83873363 -17.15843933 814.8235208 -17.17985631 802.80803312 C-17.21674885 781.35028017 -17.21350896 759.89267295 -17.19330393 738.43490608 C-17.17570879 719.65710924 -17.17109169 700.87936588 -17.17946243 682.1015625 C-17.17999713 680.85694766 -17.18053182 679.61233282 -17.18108272 678.33000238 C-17.18326202 673.27795716 -17.18549081 668.22591197 -17.18780107 663.17386681 C-17.20373628 627.90690727 -17.20653386 592.63996315 -17.18035698 557.37300873 C-17.17986524 556.70823477 -17.17937349 556.04346081 -17.17886685 555.35854218 C-17.1708521 544.56287631 -17.16231591 533.76721085 -17.15373563 522.97154542 C-17.11974095 480.15397806 -17.12131878 437.3365639 -17.15534973 394.51899719 C-17.16389798 383.72879298 -17.17237531 372.93858874 -17.18035698 362.14838409 C-17.18085012 361.48400218 -17.18134325 360.81962026 -17.18185133 360.13510556 C-17.2082877 324.27295852 -17.20246332 288.41081945 -17.18606389 252.54866838 C-17.1838188 247.50572238 -17.18162892 242.46277636 -17.17946243 237.41983032 C-17.17890889 236.17808943 -17.17835535 234.93634853 -17.17778503 233.65697912 C-17.16981605 214.88901339 -17.17914705 196.12110694 -17.19681931 177.35314941 C-17.21680907 156.01735616 -17.211884 134.6817317 -17.1738541 113.34595954 C-17.1532624 101.39871631 -17.15201214 89.45183838 -17.17837732 77.50460444 C-17.19403597 69.53095107 -17.18437466 61.55759149 -17.15384394 53.58398177 C-17.13714205 49.03631109 -17.13160065 44.48936781 -17.15668581 39.94171923 C-17.17926831 35.80572336 -17.16974049 31.6711012 -17.13442119 27.53520583 C-17.12736153 26.04716354 -17.13206003 24.55900796 -17.14986276 23.07105542 C-17.2880576 10.64023167 -17.2880576 10.64023167 -12.87519658 5.44806814 C-8.67170767 1.40392316 -5.86998049 0.01057193 0 0 Z " fill="#000000" transform="translate(668.2427520751953,87.73930358886719)"/>
<path d="M0 0 C1.27440445 -0.0071553 2.5488089 -0.01431061 3.86183167 -0.02168274 C5.27708411 -0.02452296 6.69233681 -0.0272347 8.10758972 -0.02983093 C9.59581664 -0.03609637 11.08404199 -0.04274325 12.57226562 -0.04974365 C17.46187757 -0.07077491 22.35148979 -0.08114438 27.24113464 -0.09111023 C28.92467961 -0.09515798 30.6082244 -0.0992749 32.29176903 -0.10346031 C40.20042774 -0.12250904 48.10907713 -0.13674137 56.01775438 -0.14507228 C65.14656545 -0.15484735 74.27513423 -0.18117514 83.40385991 -0.22157317 C90.46043346 -0.25172957 97.51693751 -0.26654066 104.57357424 -0.26985329 C108.78803838 -0.27220412 113.00224356 -0.28116876 117.21663857 -0.30631447 C121.18199136 -0.32959237 125.14691463 -0.33382977 129.11231804 -0.32355309 C130.56595412 -0.32305756 132.01961132 -0.32938311 133.47318268 -0.34310913 C135.46112829 -0.3608278 137.44926041 -0.35133669 139.43725586 -0.34057617 C140.54872891 -0.34296453 141.66020197 -0.34535288 142.80535603 -0.34781361 C147.79603444 0.44809817 150.89620624 3.02477147 154.22160339 6.70967102 C156.92968039 10.62133779 157.03460807 13.60813641 157.03675389 18.25277936 C157.04127785 20.18533309 157.04127785 20.18533309 157.04589319 22.1569283 C157.04419403 23.59791719 157.04240328 25.03890597 157.04053116 26.47989464 C157.04217993 28.00823657 157.0442658 29.53657808 157.04675126 31.06491888 C157.05233888 35.29446953 157.05164168 39.52400001 157.04997367 43.75355318 C157.04924496 48.34374359 157.05425988 52.9339282 157.05854869 57.52411616 C157.06614384 66.64145 157.06832252 75.758778 157.06887774 84.87611467 C157.06978988 95.79113037 157.0764529 106.70614063 157.08322457 117.62115399 C157.09930162 144.00430389 157.10518953 170.38745322 157.10997332 196.77060714 C157.11230729 209.24426075 157.11590969 221.71791389 157.11966869 234.19156714 C157.13230372 276.19709848 157.14311777 318.20262976 157.14650915 360.20816298 C157.14667139 362.21624658 157.14683695 364.22433017 157.14700354 366.23241377 C157.14733734 370.25975716 157.14766782 374.28710055 157.14799809 378.31444395 C157.148385 383.02963433 157.1487746 387.74482471 157.14916916 392.4600151 C157.14928158 393.80954833 157.149393 395.15908156 157.14950341 396.50861479 C157.15305388 439.86345922 157.16813638 483.21828708 157.19144116 526.57312518 C157.2164159 573.05349824 157.2308253 619.5338641 157.23203921 666.01424468 C157.23221068 671.03839787 157.23242611 676.06255106 157.23267365 681.08670425 C157.23272941 682.32384732 157.23278518 683.56099038 157.23284264 684.83562263 C157.23399526 704.7803284 157.24503503 724.72501708 157.2595607 744.66971708 C157.27389686 764.6998731 157.27717902 784.73000712 157.26912072 804.76016687 C157.26465101 816.67236857 157.26857845 828.58449945 157.28435923 840.49669191 C157.29406547 848.44330545 157.29297295 856.38986905 157.282923 864.33648207 C157.27749934 868.87111161 157.27692162 873.40560459 157.28943172 877.94022314 C157.30070508 882.06071213 157.29831922 886.18095244 157.28476465 890.30143249 C157.28231724 891.78739255 157.28496144 893.27337135 157.29316112 894.7593108 C157.30353117 896.76980484 157.29372777 898.78037299 157.28284955 900.79086435 C157.28309375 901.9062345 157.28333795 903.02160464 157.28358956 904.17077389 C156.65810835 909.14206698 154.17570817 912.2583337 150.40910339 915.39717102 C149.82129089 915.89732727 149.23347839 916.39748352 148.62785339 916.91279602 C145.20887686 919.3682428 142.07288159 919.27453795 138.00802612 919.28088379 C136.77569244 919.28514877 135.54335876 919.28941376 134.27368164 919.29380798 C132.90565488 919.29345846 131.53762813 919.29299692 130.16960144 919.29243469 C128.73063571 919.29542648 127.29167078 919.29882906 125.85270691 919.3026123 C121.94144512 919.31145553 118.03020521 919.31379058 114.11893439 919.31442809 C110.85362574 919.31537733 107.5883222 919.3190559 104.32301551 919.32260019 C96.61774075 919.33074635 88.91247767 919.33318431 81.2071991 919.33247375 C73.26095467 919.33187324 65.31477819 919.34241937 57.36855096 919.35821742 C50.54551998 919.37129865 43.72251119 919.37665739 36.89946777 919.37601835 C32.8248171 919.37576348 28.75022678 919.37860802 24.67558861 919.3891964 C20.84164834 919.39888692 17.00782598 919.39895003 13.17388153 919.39167976 C11.76863495 919.39063503 10.36338099 919.3929902 8.95814705 919.39904022 C7.03582352 919.40677873 5.11345971 919.40090759 3.19113159 919.39440918 C1.57922959 919.39522633 1.57922959 919.39522633 -0.06523609 919.39605999 C-5.42564717 918.95511588 -8.85272497 917.76007626 -12.72614568 913.99299115 C-17.71068157 908.08636746 -17.05981455 901.49536821 -16.97178459 894.12950134 C-16.97909121 892.58769623 -16.98946347 891.04590314 -17.00261515 889.5041368 C-17.02989932 885.26016948 -17.01355317 881.01731532 -16.99016949 876.77336594 C-16.97243012 872.15915106 -16.99522482 867.54510832 -17.01287282 862.93091774 C-17.03817709 854.8416154 -17.03737427 846.75263994 -17.01954269 838.66332245 C-16.99309884 826.63443167 -17.00658382 814.60581739 -17.02800084 802.57692856 C-17.06489345 781.09524743 -17.06165346 759.61371187 -17.04144846 738.13201684 C-17.02385334 719.33328063 -17.01923621 700.53459785 -17.02760696 681.7358551 C-17.02814166 680.48985392 -17.02867636 679.24385273 -17.02922725 677.96009393 C-17.03140655 672.90242177 -17.03363535 667.84474963 -17.0359456 662.78707752 C-17.05188082 627.4808223 -17.05467837 592.1745818 -17.02850151 556.86833191 C-17.02800977 556.20281675 -17.02751802 555.5373016 -17.02701138 554.85161931 C-17.01899663 544.04391571 -17.01046044 533.23621251 -17.00188016 522.42850934 C-16.96788548 479.5631943 -16.96946331 436.69803228 -17.00349426 393.8327179 C-17.01204252 383.03048213 -17.02051984 372.22824633 -17.02850151 361.42601013 C-17.02899465 360.76088746 -17.02948778 360.09576479 -17.02999587 359.41048689 C-17.05643221 323.50838229 -17.05060786 287.60628474 -17.03420842 251.70417595 C-17.03196333 246.65561296 -17.02977345 241.60704996 -17.02760696 236.55848694 C-17.02705342 235.31536289 -17.02649988 234.07223885 -17.02592957 232.79144438 C-17.01796057 214.00254709 -17.0272916 195.21370903 -17.04496384 176.42481995 C-17.06495357 155.06523819 -17.0600286 133.70582504 -17.02199863 112.34626436 C-17.00140688 100.38569056 -17.00015674 88.42548165 -17.02652185 76.46491713 C-17.04218044 68.48237801 -17.0325193 60.50013235 -17.00198847 52.51763683 C-16.9852865 47.96489122 -16.97974535 43.4128722 -17.00483035 38.86014867 C-17.02741263 34.71954819 -17.01788532 30.58031992 -16.98256572 26.43981984 C-16.97550599 24.95011049 -16.98020475 23.46028799 -16.99800729 21.97066829 C-17.13617462 9.52827416 -17.13617462 9.52827416 -12.72334111 4.27106667 C-8.74095526 0.36444452 -5.45706763 0.02100315 0 0 Z " fill="#000000" transform="translate(293.0908966064453,87.85282897949219)"/>
</svg>
